# Tempietto - ExPlora4D - scripts/build-tempietto-examples.mjs
mtllib Tempietto.mtl
o Block
v 2 0 2.1
vt 0.0459 0.2041
vn 1 0 0
v 2 0 -3
vt 0.3701 0.2041
v 2 0.6 -3
vt 0.3701 0.2422
v 2 0.6 2.1
vt 0.0459 0.2422
v -2 0 -3
vt 0.374 0.2041
vn -1 0 0
v -2 0 2.1
vt 0.6982 0.2041
v -2 0.6 2.1
vt 0.6982 0.2422
v -2 0.6 -3
vt 0.374 0.2422
vt 0.7021 0.2041
vn 0 0 1
vt 0.957 0.2041
vt 0.957 0.2422
vt 0.7021 0.2422
vt 0.002 0.1602
vn 0 0 -1
vt 0.2568 0.1602
vt 0.2568 0.1982
vt 0.002 0.1982
vt 0.5137 0.7549
vn 0 1 0
vt 0.7041 0.7549
vt 0.7041 0.998
vt 0.5137 0.998
vt 0.3105 0.2842
vn 0 -1 0
vt 0.374 0.2842
vt 0.374 0.3652
vt 0.3105 0.3652
usemtl stone
f 1/1/1 2/2/1 3/3/1
f 1/1/1 3/3/1 4/4/1
f 5/5/2 6/6/2 7/7/2
f 5/5/2 7/7/2 8/8/2
f 6/9/3 1/10/3 4/11/3
f 6/9/3 4/11/3 7/12/3
f 2/13/4 5/14/4 8/15/4
f 2/13/4 8/15/4 3/16/4
f 7/17/5 4/18/5 3/19/5
f 7/17/5 3/19/5 8/20/5
f 5/21/6 2/22/6 1/23/6
f 5/21/6 1/23/6 6/24/6
o Step_1
v 1.2 0 3
vt 0.0283 0.0459
v 1.2 0 2.1
vt 0.0605 0.0459
v 1.2 0.2 2.1
vt 0.0605 0.0527
v 1.2 0.2 3
vt 0.0283 0.0527
v -1.2 0 2.1
vt 0.0645 0.0459
v -1.2 0 3
vt 0.0967 0.0459
v -1.2 0.2 3
vt 0.0967 0.0527
v -1.2 0.2 2.1
vt 0.0645 0.0527
vt 0.3984 0.0625
vt 0.5127 0.0625
vt 0.5127 0.0723
vt 0.3984 0.0723
vt 0.8428 0.3223
vt 0.957 0.3223
vt 0.957 0.3652
vt 0.8428 0.3652
vt 0.1582 0.0576
vt 0.1963 0.0576
vt 0.1963 0.0723
vt 0.1582 0.0723
usemtl stone
f 9/25/1 10/26/1 11/27/1
f 9/25/1 11/27/1 12/28/1
f 13/29/2 14/30/2 15/31/2
f 13/29/2 15/31/2 16/32/2
f 14/33/3 9/34/3 12/35/3
f 14/33/3 12/35/3 15/36/3
f 15/37/5 12/38/5 11/39/5
f 15/37/5 11/39/5 16/40/5
f 13/41/6 10/42/6 9/43/6
f 13/41/6 9/43/6 14/44/6
o Step_2
v 1.2 0.2 2.7
vt 0.1006 0.0459
vt 0.1221 0.0459
v 1.2 0.4 2.1
vt 0.1221 0.0527
v 1.2 0.4 2.7
vt 0.1006 0.0527
vt 0.126 0.0459
v -1.2 0.2 2.7
vt 0.1475 0.0459
v -1.2 0.4 2.7
vt 0.1475 0.0527
v -1.2 0.4 2.1
vt 0.126 0.0527
vt 0.5166 0.0625
vt 0.6309 0.0625
vt 0.6309 0.0723
vt 0.5166 0.0723
vt 0.7549 0.0859
vt 0.8691 0.0859
vt 0.8691 0.1143
vt 0.7549 0.1143
usemtl stone
f 17/45/1 11/46/1 18/47/1
f 17/45/1 18/47/1 19/48/1
f 16/49/2 20/50/2 21/51/2
f 16/49/2 21/51/2 22/52/2
f 20/53/3 17/54/3 19/55/3
f 20/53/3 19/55/3 21/56/3
f 21/57/5 19/58/5 18/59/5
f 21/57/5 18/59/5 22/60/5
o Step_3
v 1.2 0.4 2.4
vt 0.1514 0.0459
vt 0.1621 0.0459
v 1.2 0.6 2.1
vt 0.1621 0.0527
v 1.2 0.6 2.4
vt 0.1514 0.0527
vt 0.166 0.0459
v -1.2 0.4 2.4
vt 0.1768 0.0459
v -1.2 0.6 2.4
vt 0.1768 0.0527
v -1.2 0.6 2.1
vt 0.166 0.0527
vt 0.6348 0.0625
vt 0.749 0.0625
vt 0.749 0.0723
vt 0.6348 0.0723
vt 0.2002 0.0576
vt 0.3145 0.0576
vt 0.3145 0.0723
vt 0.2002 0.0723
usemtl stone
f 23/61/1 18/62/1 24/63/1
f 23/61/1 24/63/1 25/64/1
f 22/65/2 26/66/2 27/67/2
f 22/65/2 27/67/2 28/68/2
f 26/69/3 23/70/3 25/71/3
f 26/69/3 25/71/3 27/72/3
f 27/73/5 25/74/5 24/75/5
f 27/73/5 24/75/5 28/76/5
o Wall_Front
v -1.6 0.6 0.2
vt 0.708 0.8076
v -0.5 0.6 0.2
vt 0.7778 0.8076
v -0.5 3.6 0.2
vt 0.7778 0.998
v -1.6 3.6 0.2
vt 0.708 0.998
v 0.5 0.6 0.2
vt 0.8413 0.8076
v 1.6 0.6 0.2
vt 0.9111 0.8076
v 1.6 3.6 0.2
vt 0.9111 0.998
v 0.5 3.6 0.2
vt 0.8413 0.998
v -0.5 2.8 0.2
vt 0.7778 0.9473
v 0.5 2.8 0.2
vt 0.8413 0.9473
v 1.6 0.6 0
vt 0.5723 0.3994
v 0.5 0.6 0
vt 0.6159 0.3994
v 0.5 3.6 0
vt 0.6159 0.5186
v 1.6 3.6 0
vt 0.5723 0.5186
v -0.5 0.6 0
vt 0.6556 0.3994
v -1.6 0.6 0
vt 0.6992 0.3994
v -1.6 3.6 0
vt 0.6992 0.5186
v -0.5 3.6 0
vt 0.6556 0.5186
v 0.5 2.8 0
vt 0.6159 0.4868
v -0.5 2.8 0
vt 0.6556 0.4868
vt 0.3779 0.2861
vt 0.3848 0.2861
vt 0.3848 0.3652
vt 0.3779 0.3652
vt 0.3887 0.2861
vt 0.3955 0.2861
vt 0.3955 0.3652
vt 0.3887 0.3652
vt 0.1807 0.0459
vt 0.2168 0.0459
vt 0.2168 0.0527
vt 0.1807 0.0527
vt 0.915 0.8076
vt 0.9277 0.8076
vt 0.9277 0.998
vt 0.915 0.998
vt 0.9316 0.8076
vt 0.9443 0.8076
vt 0.9443 0.998
vt 0.9316 0.998
usemtl stone
f 29/77/3 30/78/3 31/79/3
f 29/77/3 31/79/3 32/80/3
f 33/81/3 34/82/3 35/83/3
f 33/81/3 35/83/3 36/84/3
f 37/85/3 38/86/3 36/84/3
f 37/85/3 36/84/3 31/79/3
f 39/87/4 40/88/4 41/89/4
f 39/87/4 41/89/4 42/90/4
f 43/91/4 44/92/4 45/93/4
f 43/91/4 45/93/4 46/94/4
f 47/95/4 48/96/4 46/94/4
f 47/95/4 46/94/4 41/89/4
f 30/97/1 43/98/1 48/99/1
f 30/97/1 48/99/1 37/100/1
f 40/101/2 33/102/2 38/103/2
f 40/101/2 38/103/2 47/104/2
f 48/105/6 47/106/6 38/107/6
f 48/105/6 38/107/6 37/108/6
f 44/109/2 29/110/2 32/111/2
f 44/109/2 32/111/2 45/112/2
f 34/113/1 39/114/1 42/115/1
f 34/113/1 42/115/1 35/116/1
o Wall_Back
v 1.6 0.6 -2.8
vt 0.002 0.5225
v 0.4 0.6 -2.8
vt 0.0781 0.5225
v 0.4 3.6 -2.8
vt 0.0781 0.7129
v 1.6 3.6 -2.8
vt 0.002 0.7129
v -0.4 0.6 -2.8
vt 0.1289 0.5225
v -1.6 0.6 -2.8
vt 0.2051 0.5225
v -1.6 3.6 -2.8
vt 0.2051 0.7129
v -0.4 3.6 -2.8
vt 0.1289 0.7129
v -0.4 1.5 -2.8
vt 0.1289 0.5796
v 0.4 1.5 -2.8
vt 0.0781 0.5796
v 0.4 2.5 -2.8
vt 0.0781 0.6431
v -0.4 2.5 -2.8
vt 0.1289 0.6431
v -1.6 0.6 -2.6
vt 0.7031 0.3994
v -0.4 0.6 -2.6
vt 0.7507 0.3994
v -0.4 3.6 -2.6
vt 0.7507 0.5186
v -1.6 3.6 -2.6
vt 0.7031 0.5186
v 0.4 0.6 -2.6
vt 0.7825 0.3994
v 1.6 0.6 -2.6
vt 0.8301 0.3994
v 1.6 3.6 -2.6
vt 0.8301 0.5186
v 0.4 3.6 -2.6
vt 0.7825 0.5186
v 0.4 1.5 -2.6
vt 0.7825 0.4352
v -0.4 1.5 -2.6
vt 0.7507 0.4352
v -0.4 2.5 -2.6
vt 0.7507 0.4749
v 0.4 2.5 -2.6
vt 0.7825 0.4749
vt 0.3916 0.0781
vt 0.3984 0.0781
vt 0.3984 0.1143
vt 0.3916 0.1143
vt 0.4023 0.0781
vt 0.4092 0.0781
vt 0.4092 0.1143
vt 0.4023 0.1143
vt 0.2207 0.0459
vt 0.249 0.0459
vt 0.249 0.0527
vt 0.2207 0.0527
vt 0.2529 0.0459
vt 0.2813 0.0459
vt 0.2813 0.0527
vt 0.2529 0.0527
vt 0.209 0.5225
vt 0.2217 0.5225
vt 0.2217 0.7129
vt 0.209 0.7129
vt 0.2256 0.5225
vt 0.2383 0.5225
vt 0.2383 0.7129
vt 0.2256 0.7129
usemtl stone
f 49/117/4 50/118/4 51/119/4
f 49/117/4 51/119/4 52/120/4
f 53/121/4 54/122/4 55/123/4
f 53/121/4 55/123/4 56/124/4
f 50/118/4 53/121/4 57/125/4
f 50/118/4 57/125/4 58/126/4
f 59/127/4 60/128/4 56/124/4
f 59/127/4 56/124/4 51/119/4
f 61/129/3 62/130/3 63/131/3
f 61/129/3 63/131/3 64/132/3
f 65/133/3 66/134/3 67/135/3
f 65/133/3 67/135/3 68/136/3
f 62/130/3 65/133/3 69/137/3
f 62/130/3 69/137/3 70/138/3
f 71/139/3 72/140/3 68/136/3
f 71/139/3 68/136/3 63/131/3
f 58/141/2 69/142/2 72/143/2
f 58/141/2 72/143/2 59/144/2
f 70/145/1 57/146/1 60/147/1
f 70/145/1 60/147/1 71/148/1
f 58/149/5 57/150/5 70/151/5
f 58/149/5 70/151/5 69/152/5
f 72/153/6 71/154/6 60/155/6
f 72/153/6 60/155/6 59/156/6
f 66/157/1 49/158/1 52/159/1
f 66/157/1 52/159/1 67/160/1
f 54/161/2 61/162/2 64/163/2
f 54/161/2 64/163/2 55/164/2
o Wall_Left
vt 0.2422 0.5225
v -1.6 0.6 -1.7
vt 0.2993 0.5225
v -1.6 3.6 -1.7
vt 0.2993 0.7129
vt 0.2422 0.7129
v -1.6 0.6 -0.9
vt 0.3501 0.5225
vt 0.4072 0.5225
vt 0.4072 0.7129
v -1.6 3.6 -0.9
vt 0.3501 0.7129
v -1.6 1.5 -0.9
vt 0.3501 0.5796
v -1.6 1.5 -1.7
vt 0.2993 0.5796
v -1.6 2.5 -1.7
vt 0.2993 0.6431
v -1.6 2.5 -0.9
vt 0.3501 0.6431
v -1.4 0.6 0
vt 0.834 0.3994
v -1.4 0.6 -0.9
vt 0.8698 0.3994
v -1.4 3.6 -0.9
vt 0.8698 0.5186
v -1.4 3.6 0
vt 0.834 0.5186
v -1.4 0.6 -1.7
vt 0.9017 0.3994
v -1.4 0.6 -2.6
vt 0.9375 0.3994
v -1.4 3.6 -2.6
vt 0.9375 0.5186
v -1.4 3.6 -1.7
vt 0.9017 0.5186
v -1.4 1.5 -1.7
vt 0.9017 0.4352
v -1.4 1.5 -0.9
vt 0.8698 0.4352
v -1.4 2.5 -0.9
vt 0.8698 0.4749
v -1.4 2.5 -1.7
vt 0.9017 0.4749
vt 0.4131 0.0781
vt 0.4199 0.0781
vt 0.4199 0.1143
vt 0.4131 0.1143
vt 0.4238 0.0781
vt 0.4307 0.0781
vt 0.4307 0.1143
vt 0.4238 0.1143
vt 0.2852 0.0459
vt 0.3135 0.0459
vt 0.3135 0.0527
vt 0.2852 0.0527
vt 0.3174 0.0459
vt 0.3457 0.0459
vt 0.3457 0.0527
vt 0.3174 0.0527
usemtl stone
f 61/165/2 73/166/2 74/167/2
f 61/165/2 74/167/2 64/168/2
f 75/169/2 44/170/2 45/171/2
f 75/169/2 45/171/2 76/172/2
f 73/166/2 75/169/2 77/173/2
f 73/166/2 77/173/2 78/174/2
f 79/175/2 80/176/2 76/172/2
f 79/175/2 76/172/2 74/167/2
f 81/177/1 82/178/1 83/179/1
f 81/177/1 83/179/1 84/180/1
f 85/181/1 86/182/1 87/183/1
f 85/181/1 87/183/1 88/184/1
f 82/178/1 85/181/1 89/185/1
f 82/178/1 89/185/1 90/186/1
f 91/187/1 92/188/1 88/184/1
f 91/187/1 88/184/1 83/179/1
f 78/189/3 89/190/3 92/191/3
f 78/189/3 92/191/3 79/192/3
f 90/193/4 77/194/4 80/195/4
f 90/193/4 80/195/4 91/196/4
f 78/197/5 77/198/5 90/199/5
f 78/197/5 90/199/5 89/200/5
f 92/201/6 91/202/6 80/203/6
f 92/201/6 80/203/6 79/204/6
o Wall_Right
vt 0.4111 0.5225
v 1.6 0.6 -0.9
vt 0.4683 0.5225
v 1.6 3.6 -0.9
vt 0.4683 0.7129
vt 0.4111 0.7129
v 1.6 0.6 -1.7
vt 0.519 0.5225
vt 0.5762 0.5225
vt 0.5762 0.7129
v 1.6 3.6 -1.7
vt 0.519 0.7129
v 1.6 1.5 -1.7
vt 0.519 0.5796
v 1.6 1.5 -0.9
vt 0.4683 0.5796
v 1.6 2.5 -0.9
vt 0.4683 0.6431
v 1.6 2.5 -1.7
vt 0.519 0.6431
v 1.4 0.6 -2.6
vt 0.002 0.2461
v 1.4 0.6 -1.7
vt 0.0378 0.2461
v 1.4 3.6 -1.7
vt 0.0378 0.3652
v 1.4 3.6 -2.6
vt 0.002 0.3652
v 1.4 0.6 -0.9
vt 0.0696 0.2461
v 1.4 0.6 0
vt 0.1055 0.2461
v 1.4 3.6 0
vt 0.1055 0.3652
v 1.4 3.6 -0.9
vt 0.0696 0.3652
v 1.4 1.5 -0.9
vt 0.0696 0.2818
v 1.4 1.5 -1.7
vt 0.0378 0.2818
v 1.4 2.5 -1.7
vt 0.0378 0.3215
v 1.4 2.5 -0.9
vt 0.0696 0.3215
vt 0.4346 0.0781
vt 0.4414 0.0781
vt 0.4414 0.1143
vt 0.4346 0.1143
vt 0.4453 0.0781
vt 0.4521 0.0781
vt 0.4521 0.1143
vt 0.4453 0.1143
vt 0.3496 0.0459
vt 0.3779 0.0459
vt 0.3779 0.0527
vt 0.3496 0.0527
vt 0.3818 0.0459
vt 0.4102 0.0459
vt 0.4102 0.0527
vt 0.3818 0.0527
usemtl stone
f 39/205/1 93/206/1 94/207/1
f 39/205/1 94/207/1 42/208/1
f 95/209/1 66/210/1 67/211/1
f 95/209/1 67/211/1 96/212/1
f 93/206/1 95/209/1 97/213/1
f 93/206/1 97/213/1 98/214/1
f 99/215/1 100/216/1 96/212/1
f 99/215/1 96/212/1 94/207/1
f 101/217/2 102/218/2 103/219/2
f 101/217/2 103/219/2 104/220/2
f 105/221/2 106/222/2 107/223/2
f 105/221/2 107/223/2 108/224/2
f 102/218/2 105/221/2 109/225/2
f 102/218/2 109/225/2 110/226/2
f 111/227/2 112/228/2 108/224/2
f 111/227/2 108/224/2 103/219/2
f 98/229/4 109/230/4 112/231/4
f 98/229/4 112/231/4 99/232/4
f 110/233/3 97/234/3 100/235/3
f 110/233/3 100/235/3 111/236/3
f 98/237/5 97/238/5 110/239/5
f 98/237/5 110/239/5 109/240/5
f 112/241/6 111/242/6 100/243/6
f 112/241/6 100/243/6 99/244/6
o Column_1
v -1.22 0.6 1.88
vt 0.7529 0.0625
v -1.22 0.6 1.32
vt 0.7881 0.0625
v -1.22 0.75 1.32
vt 0.7881 0.0723
v -1.22 0.75 1.88
vt 0.7529 0.0723
v -1.78 0.6 1.32
vt 0.792 0.0625
v -1.78 0.6 1.88
vt 0.8271 0.0625
v -1.78 0.75 1.88
vt 0.8271 0.0723
v -1.78 0.75 1.32
vt 0.792 0.0723
vt 0.8311 0.0625
vt 0.8662 0.0625
vt 0.8662 0.0723
vt 0.8311 0.0723
vt 0.8701 0.0625
vt 0.9053 0.0625
vt 0.9053 0.0723
vt 0.8701 0.0723
vt 0.6328 0.0791
vt 0.668 0.0791
vt 0.668 0.1143
vt 0.6328 0.1143
v -1.28 0.75 1.6
vt 0.3896 0.75
vn 1 0.015 0
v -1.344 0.75 1.444
vt 0.4047 0.75
vn 0.707 0.015 -0.707
v -1.373 3.35 1.473
vt 0.4047 0.998
v -1.32 3.35 1.6
vt 0.3896 0.998
v -1.5 0.75 1.38
vt 0.4197 0.75
vn 0 0.015 -1
v -1.5 3.35 1.42
vt 0.4197 0.998
v -1.656 0.75 1.444
vt 0.4347 0.75
vn -0.707 0.015 -0.707
v -1.627 3.35 1.473
vt 0.4347 0.998
v -1.72 0.75 1.6
vt 0.4497 0.75
vn -1 0.015 0
v -1.68 3.35 1.6
vt 0.4497 0.998
v -1.656 0.75 1.756
vt 0.4647 0.75
vn -0.707 0.015 0.707
v -1.627 3.35 1.727
vt 0.4647 0.998
v -1.5 0.75 1.82
vt 0.4797 0.75
vn 0 0.015 1
v -1.5 3.35 1.78
vt 0.4797 0.998
v -1.344 0.75 1.756
vt 0.4948 0.75
vn 0.707 0.015 0.707
v -1.373 3.35 1.727
vt 0.4948 0.998
vt 0.5098 0.75
vt 0.5098 0.998
v -1.22 3.35 1.88
vt 0.002 0.0566
v -1.22 3.35 1.32
vt 0.0371 0.0566
v -1.22 3.6 1.32
vt 0.0371 0.0723
v -1.22 3.6 1.88
vt 0.002 0.0723
v -1.78 3.35 1.32
vt 0.041 0.0566
v -1.78 3.35 1.88
vt 0.0762 0.0566
v -1.78 3.6 1.88
vt 0.0762 0.0723
v -1.78 3.6 1.32
vt 0.041 0.0723
vt 0.0801 0.0566
vt 0.1152 0.0566
vt 0.1152 0.0723
vt 0.0801 0.0723
vt 0.1191 0.0566
vt 0.1543 0.0566
vt 0.1543 0.0723
vt 0.1191 0.0723
vt 0.6719 0.0791
vt 0.707 0.0791
vt 0.707 0.1143
vt 0.6719 0.1143
usemtl stone
f 113/245/1 114/246/1 115/247/1
f 113/245/1 115/247/1 116/248/1
f 117/249/2 118/250/2 119/251/2
f 117/249/2 119/251/2 120/252/2
f 118/253/3 113/254/3 116/255/3
f 118/253/3 116/255/3 119/256/3
f 114/257/4 117/258/4 120/259/4
f 114/257/4 120/259/4 115/260/4
f 119/261/5 116/262/5 115/263/5
f 119/261/5 115/263/5 120/264/5
f 121/265/7 122/266/8 123/267/8
f 121/265/7 123/267/8 124/268/7
f 122/266/8 125/269/9 126/270/9
f 122/266/8 126/270/9 123/267/8
f 125/269/9 127/271/10 128/272/10
f 125/269/9 128/272/10 126/270/9
f 127/271/10 129/273/11 130/274/11
f 127/271/10 130/274/11 128/272/10
f 129/273/11 131/275/12 132/276/12
f 129/273/11 132/276/12 130/274/11
f 131/275/12 133/277/13 134/278/13
f 131/275/12 134/278/13 132/276/12
f 133/277/13 135/279/14 136/280/14
f 133/277/13 136/280/14 134/278/13
f 135/279/14 121/281/7 124/282/7
f 135/279/14 124/282/7 136/280/14
f 137/283/1 138/284/1 139/285/1
f 137/283/1 139/285/1 140/286/1
f 141/287/2 142/288/2 143/289/2
f 141/287/2 143/289/2 144/290/2
f 142/291/3 137/292/3 140/293/3
f 142/291/3 140/293/3 143/294/3
f 138/295/4 141/296/4 144/297/4
f 138/295/4 144/297/4 139/298/4
f 141/299/6 138/300/6 137/301/6
f 141/299/6 137/301/6 142/302/6
o Column_2
v -0.37 0.6 1.88
v -0.37 0.6 1.32
v -0.37 0.75 1.32
v -0.37 0.75 1.88
v -0.93 0.6 1.32
v -0.93 0.6 1.88
v -0.93 0.75 1.88
v -0.93 0.75 1.32
v -0.43 0.75 1.6
v -0.494 0.75 1.444
v -0.523 3.35 1.473
v -0.47 3.35 1.6
v -0.65 0.75 1.38
v -0.65 3.35 1.42
v -0.806 0.75 1.444
v -0.777 3.35 1.473
v -0.87 0.75 1.6
v -0.83 3.35 1.6
v -0.806 0.75 1.756
v -0.777 3.35 1.727
v -0.65 0.75 1.82
v -0.65 3.35 1.78
v -0.494 0.75 1.756
v -0.523 3.35 1.727
v -0.37 3.35 1.88
v -0.37 3.35 1.32
v -0.37 3.6 1.32
v -0.37 3.6 1.88
v -0.93 3.35 1.32
v -0.93 3.35 1.88
v -0.93 3.6 1.88
v -0.93 3.6 1.32
usemtl stone
f 145/245/1 146/246/1 147/247/1
f 145/245/1 147/247/1 148/248/1
f 149/249/2 150/250/2 151/251/2
f 149/249/2 151/251/2 152/252/2
f 150/253/3 145/254/3 148/255/3
f 150/253/3 148/255/3 151/256/3
f 146/257/4 149/258/4 152/259/4
f 146/257/4 152/259/4 147/260/4
f 151/261/5 148/262/5 147/263/5
f 151/261/5 147/263/5 152/264/5
f 153/265/7 154/266/8 155/267/8
f 153/265/7 155/267/8 156/268/7
f 154/266/8 157/269/9 158/270/9
f 154/266/8 158/270/9 155/267/8
f 157/269/9 159/271/10 160/272/10
f 157/269/9 160/272/10 158/270/9
f 159/271/10 161/273/11 162/274/11
f 159/271/10 162/274/11 160/272/10
f 161/273/11 163/275/12 164/276/12
f 161/273/11 164/276/12 162/274/11
f 163/275/12 165/277/13 166/278/13
f 163/275/12 166/278/13 164/276/12
f 165/277/13 167/279/14 168/280/14
f 165/277/13 168/280/14 166/278/13
f 167/279/14 153/281/7 156/282/7
f 167/279/14 156/282/7 168/280/14
f 169/283/1 170/284/1 171/285/1
f 169/283/1 171/285/1 172/286/1
f 173/287/2 174/288/2 175/289/2
f 173/287/2 175/289/2 176/290/2
f 174/291/3 169/292/3 172/293/3
f 174/291/3 172/293/3 175/294/3
f 170/295/4 173/296/4 176/297/4
f 170/295/4 176/297/4 171/298/4
f 173/299/6 170/300/6 169/301/6
f 173/299/6 169/301/6 174/302/6
o Column_3
v 0.93 0.6 1.88
v 0.93 0.6 1.32
v 0.93 0.75 1.32
v 0.93 0.75 1.88
v 0.37 0.6 1.32
v 0.37 0.6 1.88
v 0.37 0.75 1.88
v 0.37 0.75 1.32
v 0.87 0.75 1.6
v 0.806 0.75 1.444
v 0.777 3.35 1.473
v 0.83 3.35 1.6
v 0.65 0.75 1.38
v 0.65 3.35 1.42
v 0.494 0.75 1.444
v 0.523 3.35 1.473
v 0.43 0.75 1.6
v 0.47 3.35 1.6
v 0.494 0.75 1.756
v 0.523 3.35 1.727
v 0.65 0.75 1.82
v 0.65 3.35 1.78
v 0.806 0.75 1.756
v 0.777 3.35 1.727
v 0.93 3.35 1.88
v 0.93 3.35 1.32
v 0.93 3.6 1.32
v 0.93 3.6 1.88
v 0.37 3.35 1.32
v 0.37 3.35 1.88
v 0.37 3.6 1.88
v 0.37 3.6 1.32
usemtl stone
f 177/245/1 178/246/1 179/247/1
f 177/245/1 179/247/1 180/248/1
f 181/249/2 182/250/2 183/251/2
f 181/249/2 183/251/2 184/252/2
f 182/253/3 177/254/3 180/255/3
f 182/253/3 180/255/3 183/256/3
f 178/257/4 181/258/4 184/259/4
f 178/257/4 184/259/4 179/260/4
f 183/261/5 180/262/5 179/263/5
f 183/261/5 179/263/5 184/264/5
f 185/265/7 186/266/8 187/267/8
f 185/265/7 187/267/8 188/268/7
f 186/266/8 189/269/9 190/270/9
f 186/266/8 190/270/9 187/267/8
f 189/269/9 191/271/10 192/272/10
f 189/269/9 192/272/10 190/270/9
f 191/271/10 193/273/11 194/274/11
f 191/271/10 194/274/11 192/272/10
f 193/273/11 195/275/12 196/276/12
f 193/273/11 196/276/12 194/274/11
f 195/275/12 197/277/13 198/278/13
f 195/275/12 198/278/13 196/276/12
f 197/277/13 199/279/14 200/280/14
f 197/277/13 200/280/14 198/278/13
f 199/279/14 185/281/7 188/282/7
f 199/279/14 188/282/7 200/280/14
f 201/283/1 202/284/1 203/285/1
f 201/283/1 203/285/1 204/286/1
f 205/287/2 206/288/2 207/289/2
f 205/287/2 207/289/2 208/290/2
f 206/291/3 201/292/3 204/293/3
f 206/291/3 204/293/3 207/294/3
f 202/295/4 205/296/4 208/297/4
f 202/295/4 208/297/4 203/298/4
f 205/299/6 202/300/6 201/301/6
f 205/299/6 201/301/6 206/302/6
o Column_4_Stump
v 1.78 0.6 1.88
v 1.78 0.6 1.32
v 1.78 0.75 1.32
v 1.78 0.75 1.88
v 1.22 0.6 1.32
v 1.22 0.6 1.88
v 1.22 0.75 1.88
v 1.22 0.75 1.32
v 1.72 0.75 1.6
vt 0.1094 0.2607
v 1.656 0.75 1.444
vt 0.1252 0.2607
v 1.644 1.85 1.456
vt 0.1252 0.3652
v 1.703 1.85 1.6
vt 0.1094 0.3652
v 1.5 0.75 1.38
vt 0.1411 0.2607
v 1.5 1.85 1.397
vt 0.1411 0.3652
v 1.344 0.75 1.444
vt 0.157 0.2607
v 1.356 1.85 1.456
vt 0.157 0.3652
v 1.28 0.75 1.6
vt 0.1729 0.2607
v 1.297 1.85 1.6
vt 0.1729 0.3652
v 1.344 0.75 1.756
vt 0.1887 0.2607
v 1.356 1.85 1.744
vt 0.1887 0.3652
v 1.5 0.75 1.82
vt 0.2046 0.2607
v 1.5 1.85 1.803
vt 0.2046 0.3652
v 1.656 0.75 1.756
vt 0.2205 0.2607
v 1.644 1.85 1.744
vt 0.2205 0.3652
vt 0.2363 0.2607
vt 0.2363 0.3652
v 1.5 1.85 1.6
vt 0.9385 0.1045
vt 0.9482 0.1045
vt 0.9454 0.1114
vt 0.9385 0.1143
vt 0.9316 0.1114
vt 0.9287 0.1045
vt 0.9316 0.0976
vt 0.9385 0.0947
vt 0.9454 0.0976
usemtl stone
f 209/245/1 210/246/1 211/247/1
f 209/245/1 211/247/1 212/248/1
f 213/249/2 214/250/2 215/251/2
f 213/249/2 215/251/2 216/252/2
f 214/253/3 209/254/3 212/255/3
f 214/253/3 212/255/3 215/256/3
f 210/257/4 213/258/4 216/259/4
f 210/257/4 216/259/4 211/260/4
f 215/261/5 212/262/5 211/263/5
f 215/261/5 211/263/5 216/264/5
f 217/303/7 218/304/8 219/305/8
f 217/303/7 219/305/8 220/306/7
f 218/304/8 221/307/9 222/308/9
f 218/304/8 222/308/9 219/305/8
f 221/307/9 223/309/10 224/310/10
f 221/307/9 224/310/10 222/308/9
f 223/309/10 225/311/11 226/312/11
f 223/309/10 226/312/11 224/310/10
f 225/311/11 227/313/12 228/314/12
f 225/311/11 228/314/12 226/312/11
f 227/313/12 229/315/13 230/316/13
f 227/313/12 230/316/13 228/314/12
f 229/315/13 231/317/14 232/318/14
f 229/315/13 232/318/14 230/316/13
f 231/317/14 217/319/7 220/320/7
f 231/317/14 220/320/7 232/318/14
f 233/321/5 220/322/5 219/323/5
f 233/321/5 219/323/5 222/324/5
f 233/321/5 222/324/5 224/325/5
f 233/321/5 224/325/5 226/326/5
f 233/321/5 226/326/5 228/327/5
f 233/321/5 228/327/5 230/328/5
f 233/321/5 230/328/5 232/329/5
f 233/321/5 232/329/5 220/322/5
o Column_4_Reconstructed
vt 0.5938 0.3057
vt 0.5997 0.3057
v 1.627 3.35 1.473
vt 0.5997 0.3652
v 1.68 3.35 1.6
vt 0.5938 0.3652
vt 0.6057 0.3057
v 1.5 3.35 1.42
vt 0.6057 0.3652
vt 0.6117 0.3057
v 1.373 3.35 1.473
vt 0.6117 0.3652
vt 0.6177 0.3057
v 1.32 3.35 1.6
vt 0.6177 0.3652
vt 0.6237 0.3057
v 1.373 3.35 1.727
vt 0.6237 0.3652
vt 0.6296 0.3057
v 1.5 3.35 1.78
vt 0.6296 0.3652
vt 0.6356 0.3057
v 1.627 3.35 1.727
vt 0.6356 0.3652
vt 0.6416 0.3057
vt 0.6416 0.3652
v 1.78 3.35 1.88
vt 0.9092 0.0625
v 1.78 3.35 1.32
vt 0.9316 0.0625
v 1.78 3.6 1.32
vt 0.9316 0.0723
v 1.78 3.6 1.88
vt 0.9092 0.0723
v 1.22 3.35 1.32
vt 0.9355 0.0625
v 1.22 3.35 1.88
vt 0.958 0.0625
v 1.22 3.6 1.88
vt 0.958 0.0723
v 1.22 3.6 1.32
vt 0.9355 0.0723
vt 0.9619 0.0625
vt 0.9844 0.0625
vt 0.9844 0.0723
vt 0.9619 0.0723
vt 0.002 0.043
vt 0.0244 0.043
vt 0.0244 0.0527
vt 0.002 0.0527
vt 0.9023 0.0918
vt 0.9248 0.0918
vt 0.9248 0.1143
vt 0.9023 0.1143
usemtl stone
f 220/330/7 219/331/8 234/332/8
f 220/330/7 234/332/8 235/333/7
f 219/331/8 222/334/9 236/335/9
f 219/331/8 236/335/9 234/332/8
f 222/334/9 224/336/10 237/337/10
f 222/334/9 237/337/10 236/335/9
f 224/336/10 226/338/11 238/339/11
f 224/336/10 238/339/11 237/337/10
f 226/338/11 228/340/12 239/341/12
f 226/338/11 239/341/12 238/339/11
f 228/340/12 230/342/13 240/343/13
f 228/340/12 240/343/13 239/341/12
f 230/342/13 232/344/14 241/345/14
f 230/342/13 241/345/14 240/343/13
f 232/344/14 220/346/7 235/347/7
f 232/344/14 235/347/7 241/345/14
f 242/348/1 243/349/1 244/350/1
f 242/348/1 244/350/1 245/351/1
f 246/352/2 247/353/2 248/354/2
f 246/352/2 248/354/2 249/355/2
f 247/356/3 242/357/3 245/358/3
f 247/356/3 245/358/3 248/359/3
f 243/360/4 246/361/4 249/362/4
f 243/360/4 249/362/4 244/363/4
f 246/364/6 243/365/6 242/366/6
f 246/364/6 242/366/6 247/367/6
o Fallen_Drum
v 1.691 0.4 2.212
vt 0.3994 0.2988
v 1.554 0.341 2.175
vt 0.4144 0.2988
vn -0.683 0.707 -0.183
v 1.373 0.341 2.851
vt 0.4144 0.3652
v 1.509 0.4 2.888
vt 0.3994 0.3652
v 1.497 0.2 2.16
vt 0.4294 0.2988
vn -0.966 0 -0.259
v 1.316 0.2 2.836
vt 0.4294 0.3652
v 1.554 0.059 2.175
vt 0.4445 0.2988
vn -0.683 -0.707 -0.183
v 1.373 0.059 2.851
vt 0.4445 0.3652
v 1.691 0 2.212
vt 0.4595 0.2988
v 1.509 0 2.888
vt 0.4595 0.3652
v 1.827 0.059 2.249
vt 0.4745 0.2988
vn 0.683 -0.707 0.183
v 1.646 0.059 2.925
vt 0.4745 0.3652
v 1.884 0.2 2.264
vt 0.4895 0.2988
vn 0.966 0 0.259
v 1.703 0.2 2.94
vt 0.4895 0.3652
v 1.827 0.341 2.249
vt 0.5045 0.2988
vn 0.683 0.707 0.183
v 1.646 0.341 2.925
vt 0.5045 0.3652
vt 0.5195 0.2988
vt 0.5195 0.3652
v 1.509 0.2 2.888
vt 0.9619 0.1045
vn -0.259 0 0.966
vt 0.9717 0.1045
vt 0.9688 0.1114
vt 0.9619 0.1143
vt 0.955 0.1114
vt 0.9521 0.1045
vt 0.955 0.0976
vt 0.9619 0.0947
vt 0.9688 0.0976
v 1.691 0.2 2.212
vt 0.9854 0.1045
vn 0.259 0 -0.966
vt 0.9923 0.0976
vt 0.9951 0.1045
vt 0.9854 0.0947
vt 0.9784 0.0976
vt 0.9756 0.1045
vt 0.9784 0.1114
vt 0.9854 0.1143
vt 0.9923 0.1114
usemtl stone
f 250/368/5 251/369/15 252/370/15
f 250/368/5 252/370/15 253/371/5
f 251/369/15 254/372/16 255/373/16
f 251/369/15 255/373/16 252/370/15
f 254/372/16 256/374/17 257/375/17
f 254/372/16 257/375/17 255/373/16
f 256/374/17 258/376/6 259/377/6
f 256/374/17 259/377/6 257/375/17
f 258/376/6 260/378/18 261/379/18
f 258/376/6 261/379/18 259/377/6
f 260/378/18 262/380/19 263/381/19
f 260/378/18 263/381/19 261/379/18
f 262/380/19 264/382/20 265/383/20
f 262/380/19 265/383/20 263/381/19
f 264/382/20 250/384/5 253/385/5
f 264/382/20 253/385/5 265/383/20
f 266/386/21 253/387/21 252/388/21
f 266/386/21 252/388/21 255/389/21
f 266/386/21 255/389/21 257/390/21
f 266/386/21 257/390/21 259/391/21
f 266/386/21 259/391/21 261/392/21
f 266/386/21 261/392/21 263/393/21
f 266/386/21 263/393/21 265/394/21
f 266/386/21 265/394/21 253/387/21
f 267/395/22 251/396/22 250/397/22
f 267/395/22 254/398/22 251/396/22
f 267/395/22 256/399/22 254/398/22
f 267/395/22 258/400/22 256/399/22
f 267/395/22 260/401/22 258/400/22
f 267/395/22 262/402/22 260/401/22
f 267/395/22 264/403/22 262/402/22
f 267/395/22 250/397/22 264/403/22
o Entablature
v -1.8 4 1.95
vt 0.5801 0.5391
v -0.5 4 1.95
vt 0.6266 0.5391
v -0.5 4 -2.9
vt 0.6266 0.7129
v -1.8 4 -2.9
vt 0.5801 0.7129
v 0.5 4 1.95
vt 0.6624 0.5391
v 1.8 4 1.95
vt 0.709 0.5391
v 1.8 4 -2.9
vt 0.709 0.7129
v 0.5 4 -2.9
vt 0.6624 0.7129
v 0.5 4 -0.8
vt 0.6624 0.6376
v -0.5 4 -0.8
vt 0.6266 0.6376
v -0.5 4 -1.8
vt 0.6266 0.6735
v 0.5 4 -1.8
vt 0.6624 0.6735
v 1.8 3.6 1.95
vt 0.1855 0.7285
v 0.5 3.6 1.95
vt 0.2578 0.7285
v 0.5 3.6 -2.9
vt 0.2578 0.998
v 1.8 3.6 -2.9
vt 0.1855 0.998
v -0.5 3.6 1.95
vt 0.3134 0.7285
v -1.8 3.6 1.95
vt 0.3857 0.7285
v -1.8 3.6 -2.9
vt 0.3857 0.998
v -0.5 3.6 -2.9
vt 0.3134 0.998
v -0.5 3.6 -0.8
vt 0.3134 0.8813
v 0.5 3.6 -0.8
vt 0.2578 0.8813
v 0.5 3.6 -1.8
vt 0.2578 0.9369
v -0.5 3.6 -1.8
vt 0.3134 0.9369
vt 0.4561 0.0781
vt 0.4707 0.0781
vt 0.4707 0.1143
vt 0.4561 0.1143
vt 0.4746 0.0781
vt 0.4893 0.0781
vt 0.4893 0.1143
vt 0.4746 0.1143
vt 0.3184 0.0576
vt 0.3545 0.0576
vt 0.3545 0.0723
vt 0.3184 0.0723
vt 0.3584 0.0576
vt 0.3945 0.0576
vt 0.3945 0.0723
vt 0.3584 0.0723
vt 0.2607 0.1602
vt 0.7236 0.1602
vt 0.7236 0.1982
vt 0.2607 0.1982
vt 0.002 0.1182
vt 0.4648 0.1182
vt 0.4648 0.1562
vt 0.002 0.1562
vt 0.4688 0.1182
vt 0.8125 0.1182
vt 0.8125 0.1562
vt 0.4688 0.1562
vt 0.002 0.0762
vt 0.3457 0.0762
vt 0.3457 0.1143
vt 0.002 0.1143
usemtl stone
f 268/404/5 269/405/5 270/406/5
f 268/404/5 270/406/5 271/407/5
f 272/408/5 273/409/5 274/410/5
f 272/408/5 274/410/5 275/411/5
f 269/405/5 272/408/5 276/412/5
f 269/405/5 276/412/5 277/413/5
f 278/414/5 279/415/5 275/411/5
f 278/414/5 275/411/5 270/406/5
f 280/416/6 281/417/6 282/418/6
f 280/416/6 282/418/6 283/419/6
f 284/420/6 285/421/6 286/422/6
f 284/420/6 286/422/6 287/423/6
f 281/417/6 284/420/6 288/424/6
f 281/417/6 288/424/6 289/425/6
f 290/426/6 291/427/6 287/423/6
f 290/426/6 287/423/6 282/418/6
f 277/428/1 288/429/1 291/430/1
f 277/428/1 291/430/1 278/431/1
f 289/432/2 276/433/2 279/434/2
f 289/432/2 279/434/2 290/435/2
f 277/436/4 276/437/4 289/438/4
f 277/436/4 289/438/4 288/439/4
f 291/440/3 290/441/3 279/442/3
f 291/440/3 279/442/3 278/443/3
f 286/444/2 285/445/2 268/446/2
f 286/444/2 268/446/2 271/447/2
f 280/448/1 283/449/1 274/450/1
f 280/448/1 274/450/1 273/451/1
f 285/452/3 280/453/3 273/454/3
f 285/452/3 273/454/3 268/455/3
f 283/456/4 286/457/4 271/458/4
f 283/456/4 271/458/4 274/459/4
o Slope_Left
v -1.863 3.929 -3
vt 0.4141 0.0488
vn -0.885 -0.466 0
v -1.863 3.929 2.05
vt 0.5146 0.0488
v -1.9 4 2.05
vt 0.5146 0.0527
v -1.9 4 -3
vt 0.4141 0.0527
vt 0.5186 0.0488
v -0.463 4.666 2.05
vt 0.5498 0.0488
v -0.5 4.737 2.05
vt 0.5498 0.0527
vt 0.5186 0.0527
v -0.463 4.666 -3
vt 0.5537 0.0488
vt 0.585 0.0488
vt 0.585 0.0527
v -0.5 4.737 -3
vt 0.5537 0.0527
vt 0.002 0.7168
vn -0.466 0.885 0
vt 0.0898 0.7168
vt 0.0898 0.998
vt 0.002 0.998
vt 0.2402 0.2646
vn 0.466 -0.885 0
vt 0.2715 0.2646
vt 0.2715 0.3652
vt 0.2402 0.3652
v 0.037 4.929 -3
vt 0.5889 0.0488
vt 0.5996 0.0488
vt 0.5996 0.0527
v 0 5 -3
vt 0.5889 0.0527
v -0.5 4.737 -1.8
vt 0.5234 0.2988
v 0 5 -1.8
vt 0.5547 0.2988
vt 0.5547 0.3652
vt 0.5234 0.3652
vt 0.873 0.0908
vt 0.8838 0.0908
v 0.037 4.929 -1.8
vt 0.8838 0.1143
v -0.463 4.666 -1.8
vt 0.873 0.1143
vt 0.6035 0.0488
v 0.037 4.929 2.05
vt 0.6143 0.0488
v 0 5 2.05
vt 0.6143 0.0527
vt 0.6035 0.0527
vt 0.7129 0.5547
vt 0.7441 0.5547
v 0 5 -0.8
vt 0.7441 0.7129
v -0.5 4.737 -0.8
vt 0.7129 0.7129
v -0.463 4.666 -0.8
vt 0.6455 0.3086
v 0.037 4.929 -0.8
vt 0.6563 0.3086
vt 0.6563 0.3652
vt 0.6455 0.3652
usemtl stone
f 292/460/23 293/461/23 294/462/23
f 292/460/23 294/462/23 295/463/23
f 293/464/3 296/465/3 297/466/3
f 293/464/3 297/466/3 294/467/3
f 298/468/4 292/469/4 295/470/4
f 298/468/4 295/470/4 299/471/4
f 294/472/24 297/473/24 299/474/24
f 294/472/24 299/474/24 295/475/24
f 292/476/25 298/477/25 296/478/25
f 292/476/25 296/478/25 293/479/25
f 300/480/4 298/481/4 299/482/4
f 300/480/4 299/482/4 301/483/4
f 302/484/24 303/485/24 301/486/24
f 302/484/24 301/486/24 299/487/24
f 298/488/25 300/489/25 304/490/25
f 298/488/25 304/490/25 305/491/25
f 296/492/3 306/493/3 307/494/3
f 296/492/3 307/494/3 297/495/3
f 297/496/24 307/497/24 308/498/24
f 297/496/24 308/498/24 309/499/24
f 310/500/25 311/501/25 306/502/25
f 310/500/25 306/502/25 296/503/25
o Slope_Right
v 1.9 4 -3
vt 0.6182 0.0488
vn 0.885 -0.466 0
v 1.9 4 2.05
vt 0.7188 0.0488
v 1.863 3.929 2.05
vt 0.7188 0.0527
v 1.863 3.929 -3
vt 0.6182 0.0527
vt 0.7227 0.0488
v 0.5 4.737 2.05
vt 0.7539 0.0488
v 0.463 4.666 2.05
vt 0.7539 0.0527
vt 0.7227 0.0527
v 0.5 4.737 -3
vt 0.7578 0.0488
vt 0.7891 0.0488
vt 0.7891 0.0527
v 0.463 4.666 -3
vt 0.7578 0.0527
vt 0.2754 0.2646
vn -0.466 -0.885 0
vt 0.3066 0.2646
vt 0.3066 0.3652
vt 0.2754 0.3652
vt 0.0938 0.7168
vn 0.466 0.885 0
vt 0.1816 0.7168
vt 0.1816 0.998
vt 0.0938 0.998
vt 0.793 0.0488
vt 0.8037 0.0488
vt 0.8037 0.0527
v -0.037 4.929 -3
vt 0.793 0.0527
v 0.463 4.666 -1.8
vt 0.8877 0.0908
v -0.037 4.929 -1.8
vt 0.8984 0.0908
vt 0.8984 0.1143
vt 0.8877 0.1143
vt 0.5586 0.2988
vt 0.5898 0.2988
vt 0.5898 0.3652
v 0.5 4.737 -1.8
vt 0.5586 0.3652
vt 0.8076 0.0488
vt 0.8184 0.0488
v -0.037 4.929 2.05
vt 0.8184 0.0527
vt 0.8076 0.0527
vt 0.6602 0.3086
vt 0.6709 0.3086
v -0.037 4.929 -0.8
vt 0.6709 0.3652
v 0.463 4.666 -0.8
vt 0.6602 0.3652
v 0.5 4.737 -0.8
vt 0.748 0.5547
vt 0.7793 0.5547
vt 0.7793 0.7129
vt 0.748 0.7129
usemtl stone
f 312/504/26 313/505/26 314/506/26
f 312/504/26 314/506/26 315/507/26
f 313/508/3 316/509/3 317/510/3
f 313/508/3 317/510/3 314/511/3
f 318/512/4 312/513/4 315/514/4
f 318/512/4 315/514/4 319/515/4
f 314/516/27 317/517/27 319/518/27
f 314/516/27 319/518/27 315/519/27
f 312/520/28 318/521/28 316/522/28
f 312/520/28 316/522/28 313/523/28
f 301/524/4 318/525/4 319/526/4
f 301/524/4 319/526/4 320/527/4
f 321/528/27 322/529/27 320/530/27
f 321/528/27 320/530/27 319/531/27
f 318/532/28 301/533/28 303/534/28
f 318/532/28 303/534/28 323/535/28
f 316/536/3 307/537/3 324/538/3
f 316/536/3 324/538/3 317/539/3
f 317/540/27 324/541/27 325/542/27
f 317/540/27 325/542/27 326/543/27
f 327/544/28 308/545/28 307/546/28
f 327/544/28 307/546/28 316/547/28
o Skylight_Well
vt 0.7109 0.085
vt 0.751 0.085
vt 0.751 0.1143
vt 0.7109 0.1143
vt 0.002 0.2021
vt 0.042 0.2021
vt 0.042 0.2317
vt 0.022 0.2422
vt 0.002 0.2317
usemtl stone
f 277/548/1 278/549/1 302/550/1
f 277/548/1 302/550/1 309/551/1
f 279/548/2 276/549/2 327/550/2
f 279/548/2 327/550/2 323/551/2
f 278/552/3 279/553/3 323/554/3
f 278/552/3 323/554/3 303/555/3
f 278/552/3 303/555/3 302/556/3
f 276/552/4 277/553/4 309/554/4
f 276/552/4 309/554/4 308/555/4
f 276/552/4 308/555/4 327/556/4
o Pediment_Front
v -1.9 4 1.95
vt 0.002 0.3691
v 1.9 4 1.95
vt 0.5684 0.3691
v 0 5 1.95
vt 0.2852 0.5186
vt 0.4932 0.0781
vt 0.6289 0.0781
vt 0.561 0.1143
usemtl stone
f 328/557/3 329/558/3 330/559/3
f 329/560/4 328/561/4 330/562/4
o Pediment_Back
v 1.9 4 -2.9
v -1.9 4 -2.9
v 0 5 -2.9
usemtl stone
f 331/557/4 332/558/4 333/559/4
f 332/560/3 331/561/3 333/562/3
o Pedestal
v 0.3 0.6 -1
vt 0.6748 0.3203
v 0.3 0.6 -1.6
vt 0.7129 0.3203
v 0.3 1.3 -1.6
vt 0.7129 0.3652
v 0.3 1.3 -1
vt 0.6748 0.3652
v -0.3 0.6 -1.6
vt 0.7168 0.3203
v -0.3 0.6 -1
vt 0.7549 0.3203
v -0.3 1.3 -1
vt 0.7549 0.3652
v -0.3 1.3 -1.6
vt 0.7168 0.3652
vt 0.7588 0.3203
vt 0.7969 0.3203
vt 0.7969 0.3652
vt 0.7588 0.3652
vt 0.8008 0.3203
vt 0.8389 0.3203
vt 0.8389 0.3652
vt 0.8008 0.3652
vt 0.3496 0.0762
vt 0.3877 0.0762
vt 0.3877 0.1143
vt 0.3496 0.1143
usemtl stone
f 334/563/1 335/564/1 336/565/1
f 334/563/1 336/565/1 337/566/1
f 338/567/2 339/568/2 340/569/2
f 338/567/2 340/569/2 341/570/2
f 339/571/3 334/572/3 337/573/3
f 339/571/3 337/573/3 340/574/3
f 335/575/4 338/576/4 341/577/4
f 335/575/4 341/577/4 336/578/4
f 340/579/5 337/580/5 336/581/5
f 340/579/5 336/581/5 341/582/5
o Glass_Sphere
v 0 2.2 -1.3
v 0.159 2.166 -1.234
vn 0.354 0.924 0.146
v 0.172 2.166 -1.3
vn 0.383 0.924 0
v 0 1.3 -1.3
v 0.172 1.334 -1.3
vn 0.383 -0.924 0
v 0.159 1.334 -1.234
vn 0.354 -0.924 0.146
v 0.294 2.068 -1.178
vn 0.653 0.707 0.271
v 0.318 2.068 -1.3
vn 0.707 0.707 0
v 0.384 1.922 -1.141
vn 0.854 0.383 0.354
v 0.416 1.922 -1.3
vn 0.924 0.383 0
v 0.416 1.75 -1.128
vn 0.924 0 0.383
v 0.45 1.75 -1.3
v 0.384 1.578 -1.141
vn 0.854 -0.383 0.354
v 0.416 1.578 -1.3
vn 0.924 -0.383 0
v 0.294 1.432 -1.178
vn 0.653 -0.707 0.271
v 0.318 1.432 -1.3
vn 0.707 -0.707 0
v 0.122 2.166 -1.178
vn 0.271 0.924 0.271
v 0.122 1.334 -1.178
vn 0.271 -0.924 0.271
v 0.225 2.068 -1.075
vn 0.5 0.707 0.5
v 0.294 1.922 -1.006
vn 0.653 0.383 0.653
v 0.318 1.75 -0.982
vn 0.707 0 0.707
v 0.294 1.578 -1.006
vn 0.653 -0.383 0.653
v 0.225 1.432 -1.075
vn 0.5 -0.707 0.5
v 0.066 2.166 -1.141
vn 0.146 0.924 0.354
v 0.066 1.334 -1.141
vn 0.146 -0.924 0.354
v 0.122 2.068 -1.006
vn 0.271 0.707 0.653
v 0.159 1.922 -0.916
vn 0.354 0.383 0.854
v 0.172 1.75 -0.884
vn 0.383 0 0.924
v 0.159 1.578 -0.916
vn 0.354 -0.383 0.854
v 0.122 1.432 -1.006
vn 0.271 -0.707 0.653
v 0 2.166 -1.128
vn 0 0.924 0.383
v 0 1.334 -1.128
vn 0 -0.924 0.383
v 0 2.068 -0.982
vn 0 0.707 0.707
v 0 1.922 -0.884
vn 0 0.383 0.924
v 0 1.75 -0.85
v 0 1.578 -0.884
vn 0 -0.383 0.924
v 0 1.432 -0.982
vn 0 -0.707 0.707
v -0.066 2.166 -1.141
vn -0.146 0.924 0.354
v -0.066 1.334 -1.141
vn -0.146 -0.924 0.354
v -0.122 2.068 -1.006
vn -0.271 0.707 0.653
v -0.159 1.922 -0.916
vn -0.354 0.383 0.854
v -0.172 1.75 -0.884
vn -0.383 0 0.924
v -0.159 1.578 -0.916
vn -0.354 -0.383 0.854
v -0.122 1.432 -1.006
vn -0.271 -0.707 0.653
v -0.122 2.166 -1.178
vn -0.271 0.924 0.271
v -0.122 1.334 -1.178
vn -0.271 -0.924 0.271
v -0.225 2.068 -1.075
vn -0.5 0.707 0.5
v -0.294 1.922 -1.006
vn -0.653 0.383 0.653
v -0.318 1.75 -0.982
vn -0.707 0 0.707
v -0.294 1.578 -1.006
vn -0.653 -0.383 0.653
v -0.225 1.432 -1.075
vn -0.5 -0.707 0.5
v -0.159 2.166 -1.234
vn -0.354 0.924 0.146
v -0.159 1.334 -1.234
vn -0.354 -0.924 0.146
v -0.294 2.068 -1.178
vn -0.653 0.707 0.271
v -0.384 1.922 -1.141
vn -0.854 0.383 0.354
v -0.416 1.75 -1.128
vn -0.924 0 0.383
v -0.384 1.578 -1.141
vn -0.854 -0.383 0.354
v -0.294 1.432 -1.178
vn -0.653 -0.707 0.271
v -0.172 2.166 -1.3
vn -0.383 0.924 0
v -0.172 1.334 -1.3
vn -0.383 -0.924 0
v -0.318 2.068 -1.3
vn -0.707 0.707 0
v -0.416 1.922 -1.3
vn -0.924 0.383 0
v -0.45 1.75 -1.3
v -0.416 1.578 -1.3
vn -0.924 -0.383 0
v -0.318 1.432 -1.3
vn -0.707 -0.707 0
v -0.159 2.166 -1.366
vn -0.354 0.924 -0.146
v -0.159 1.334 -1.366
vn -0.354 -0.924 -0.146
v -0.294 2.068 -1.422
vn -0.653 0.707 -0.271
v -0.384 1.922 -1.459
vn -0.854 0.383 -0.354
v -0.416 1.75 -1.472
vn -0.924 0 -0.383
v -0.384 1.578 -1.459
vn -0.854 -0.383 -0.354
v -0.294 1.432 -1.422
vn -0.653 -0.707 -0.271
v -0.122 2.166 -1.422
vn -0.271 0.924 -0.271
v -0.122 1.334 -1.422
vn -0.271 -0.924 -0.271
v -0.225 2.068 -1.525
vn -0.5 0.707 -0.5
v -0.294 1.922 -1.594
vn -0.653 0.383 -0.653
v -0.318 1.75 -1.618
vn -0.707 0 -0.707
v -0.294 1.578 -1.594
vn -0.653 -0.383 -0.653
v -0.225 1.432 -1.525
vn -0.5 -0.707 -0.5
v -0.066 2.166 -1.459
vn -0.146 0.924 -0.354
v -0.066 1.334 -1.459
vn -0.146 -0.924 -0.354
v -0.122 2.068 -1.594
vn -0.271 0.707 -0.653
v -0.159 1.922 -1.684
vn -0.354 0.383 -0.854
v -0.172 1.75 -1.716
vn -0.383 0 -0.924
v -0.159 1.578 -1.684
vn -0.354 -0.383 -0.854
v -0.122 1.432 -1.594
vn -0.271 -0.707 -0.653
v 0 2.166 -1.472
vn 0 0.924 -0.383
v 0 1.334 -1.472
vn 0 -0.924 -0.383
v 0 2.068 -1.618
vn 0 0.707 -0.707
v 0 1.922 -1.716
vn 0 0.383 -0.924
v 0 1.75 -1.75
v 0 1.578 -1.716
vn 0 -0.383 -0.924
v 0 1.432 -1.618
vn 0 -0.707 -0.707
v 0.066 2.166 -1.459
vn 0.146 0.924 -0.354
v 0.066 1.334 -1.459
vn 0.146 -0.924 -0.354
v 0.122 2.068 -1.594
vn 0.271 0.707 -0.653
v 0.159 1.922 -1.684
vn 0.354 0.383 -0.854
v 0.172 1.75 -1.716
vn 0.383 0 -0.924
v 0.159 1.578 -1.684
vn 0.354 -0.383 -0.854
v 0.122 1.432 -1.594
vn 0.271 -0.707 -0.653
v 0.122 2.166 -1.422
vn 0.271 0.924 -0.271
v 0.122 1.334 -1.422
vn 0.271 -0.924 -0.271
v 0.225 2.068 -1.525
vn 0.5 0.707 -0.5
v 0.294 1.922 -1.594
vn 0.653 0.383 -0.653
v 0.318 1.75 -1.618
vn 0.707 0 -0.707
v 0.294 1.578 -1.594
vn 0.653 -0.383 -0.653
v 0.225 1.432 -1.525
vn 0.5 -0.707 -0.5
v 0.159 2.166 -1.366
vn 0.354 0.924 -0.146
v 0.159 1.334 -1.366
vn 0.354 -0.924 -0.146
v 0.294 2.068 -1.422
vn 0.653 0.707 -0.271
v 0.384 1.922 -1.459
vn 0.854 0.383 -0.354
v 0.416 1.75 -1.472
vn 0.924 0 -0.383
v 0.384 1.578 -1.459
vn 0.854 -0.383 -0.354
v 0.294 1.432 -1.422
vn 0.653 -0.707 -0.271
usemtl glass
f 342//5 343//29 344//30
f 345//6 346//31 347//32
f 344//30 343//29 348//33
f 344//30 348//33 349//34
f 349//34 348//33 350//35
f 349//34 350//35 351//36
f 351//36 350//35 352//37
f 351//36 352//37 353//1
f 353//1 352//37 354//38
f 353//1 354//38 355//39
f 355//39 354//38 356//40
f 355//39 356//40 357//41
f 357//41 356//40 347//32
f 357//41 347//32 346//31
f 342//5 358//42 343//29
f 345//6 347//32 359//43
f 343//29 358//42 360//44
f 343//29 360//44 348//33
f 348//33 360//44 361//45
f 348//33 361//45 350//35
f 350//35 361//45 362//46
f 350//35 362//46 352//37
f 352//37 362//46 363//47
f 352//37 363//47 354//38
f 354//38 363//47 364//48
f 354//38 364//48 356//40
f 356//40 364//48 359//43
f 356//40 359//43 347//32
f 342//5 365//49 358//42
f 345//6 359//43 366//50
f 358//42 365//49 367//51
f 358//42 367//51 360//44
f 360//44 367//51 368//52
f 360//44 368//52 361//45
f 361//45 368//52 369//53
f 361//45 369//53 362//46
f 362//46 369//53 370//54
f 362//46 370//54 363//47
f 363//47 370//54 371//55
f 363//47 371//55 364//48
f 364//48 371//55 366//50
f 364//48 366//50 359//43
f 342//5 372//56 365//49
f 345//6 366//50 373//57
f 365//49 372//56 374//58
f 365//49 374//58 367//51
f 367//51 374//58 375//59
f 367//51 375//59 368//52
f 368//52 375//59 376//3
f 368//52 376//3 369//53
f 369//53 376//3 377//60
f 369//53 377//60 370//54
f 370//54 377//60 378//61
f 370//54 378//61 371//55
f 371//55 378//61 373//57
f 371//55 373//57 366//50
f 342//5 379//62 372//56
f 345//6 373//57 380//63
f 372//56 379//62 381//64
f 372//56 381//64 374//58
f 374//58 381//64 382//65
f 374//58 382//65 375//59
f 375//59 382//65 383//66
f 375//59 383//66 376//3
f 376//3 383//66 384//67
f 376//3 384//67 377//60
f 377//60 384//67 385//68
f 377//60 385//68 378//61
f 378//61 385//68 380//63
f 378//61 380//63 373//57
f 342//5 386//69 379//62
f 345//6 380//63 387//70
f 379//62 386//69 388//71
f 379//62 388//71 381//64
f 381//64 388//71 389//72
f 381//64 389//72 382//65
f 382//65 389//72 390//73
f 382//65 390//73 383//66
f 383//66 390//73 391//74
f 383//66 391//74 384//67
f 384//67 391//74 392//75
f 384//67 392//75 385//68
f 385//68 392//75 387//70
f 385//68 387//70 380//63
f 342//5 393//76 386//69
f 345//6 387//70 394//77
f 386//69 393//76 395//78
f 386//69 395//78 388//71
f 388//71 395//78 396//79
f 388//71 396//79 389//72
f 389//72 396//79 397//80
f 389//72 397//80 390//73
f 390//73 397//80 398//81
f 390//73 398//81 391//74
f 391//74 398//81 399//82
f 391//74 399//82 392//75
f 392//75 399//82 394//77
f 392//75 394//77 387//70
f 342//5 400//83 393//76
f 345//6 394//77 401//84
f 393//76 400//83 402//85
f 393//76 402//85 395//78
f 395//78 402//85 403//86
f 395//78 403//86 396//79
f 396//79 403//86 404//2
f 396//79 404//2 397//80
f 397//80 404//2 405//87
f 397//80 405//87 398//81
f 398//81 405//87 406//88
f 398//81 406//88 399//82
f 399//82 406//88 401//84
f 399//82 401//84 394//77
f 342//5 407//89 400//83
f 345//6 401//84 408//90
f 400//83 407//89 409//91
f 400//83 409//91 402//85
f 402//85 409//91 410//92
f 402//85 410//92 403//86
f 403//86 410//92 411//93
f 403//86 411//93 404//2
f 404//2 411//93 412//94
f 404//2 412//94 405//87
f 405//87 412//94 413//95
f 405//87 413//95 406//88
f 406//88 413//95 408//90
f 406//88 408//90 401//84
f 342//5 414//96 407//89
f 345//6 408//90 415//97
f 407//89 414//96 416//98
f 407//89 416//98 409//91
f 409//91 416//98 417//99
f 409//91 417//99 410//92
f 410//92 417//99 418//100
f 410//92 418//100 411//93
f 411//93 418//100 419//101
f 411//93 419//101 412//94
f 412//94 419//101 420//102
f 412//94 420//102 413//95
f 413//95 420//102 415//97
f 413//95 415//97 408//90
f 342//5 421//103 414//96
f 345//6 415//97 422//104
f 414//96 421//103 423//105
f 414//96 423//105 416//98
f 416//98 423//105 424//106
f 416//98 424//106 417//99
f 417//99 424//106 425//107
f 417//99 425//107 418//100
f 418//100 425//107 426//108
f 418//100 426//108 419//101
f 419//101 426//108 427//109
f 419//101 427//109 420//102
f 420//102 427//109 422//104
f 420//102 422//104 415//97
f 342//5 428//110 421//103
f 345//6 422//104 429//111
f 421//103 428//110 430//112
f 421//103 430//112 423//105
f 423//105 430//112 431//113
f 423//105 431//113 424//106
f 424//106 431//113 432//4
f 424//106 432//4 425//107
f 425//107 432//4 433//114
f 425//107 433//114 426//108
f 426//108 433//114 434//115
f 426//108 434//115 427//109
f 427//109 434//115 429//111
f 427//109 429//111 422//104
f 342//5 435//116 428//110
f 345//6 429//111 436//117
f 428//110 435//116 437//118
f 428//110 437//118 430//112
f 430//112 437//118 438//119
f 430//112 438//119 431//113
f 431//113 438//119 439//120
f 431//113 439//120 432//4
f 432//4 439//120 440//121
f 432//4 440//121 433//114
f 433//114 440//121 441//122
f 433//114 441//122 434//115
f 434//115 441//122 436//117
f 434//115 436//117 429//111
f 342//5 442//123 435//116
f 345//6 436//117 443//124
f 435//116 442//123 444//125
f 435//116 444//125 437//118
f 437//118 444//125 445//126
f 437//118 445//126 438//119
f 438//119 445//126 446//127
f 438//119 446//127 439//120
f 439//120 446//127 447//128
f 439//120 447//128 440//121
f 440//121 447//128 448//129
f 440//121 448//129 441//122
f 441//122 448//129 443//124
f 441//122 443//124 436//117
f 342//5 449//130 442//123
f 345//6 443//124 450//131
f 442//123 449//130 451//132
f 442//123 451//132 444//125
f 444//125 451//132 452//133
f 444//125 452//133 445//126
f 445//126 452//133 453//134
f 445//126 453//134 446//127
f 446//127 453//134 454//135
f 446//127 454//135 447//128
f 447//128 454//135 455//136
f 447//128 455//136 448//129
f 448//129 455//136 450//131
f 448//129 450//131 443//124
f 342//5 344//30 449//130
f 345//6 450//131 346//31
f 449//130 344//30 349//34
f 449//130 349//34 451//132
f 451//132 349//34 351//36
f 451//132 351//36 452//133
f 452//133 351//36 353//1
f 452//133 353//1 453//134
f 453//134 353//1 355//39
f 453//134 355//39 454//135
f 454//135 355//39 357//41
f 454//135 357//41 455//136
f 455//136 357//41 346//31
f 455//136 346//31 450//131
o Window_Back_Abstract
v -0.4 1.5 -2.7
vt 0.501 0.0645
v 0.4 1.5 -2.7
vt 0.874 0.0645
v 0.4 2.5 -2.7
vt 0.874 0.998
v -0.4 2.5 -2.7
vt 0.501 0.998
usemtl stained
f 456/583/3 457/584/3 458/585/3
f 456/583/3 458/585/3 459/586/3
f 456/583/4 458/585/4 457/584/4
f 456/583/4 459/586/4 458/585/4
o Window_Left
v -1.5 1.5 -1.7
vt 0.251 0.533
v -1.5 1.5 -0.9
vt 0.4365 0.533
v -1.5 2.5 -0.9
vt 0.4365 0.998
v -1.5 2.5 -1.7
vt 0.251 0.998
usemtl stained
f 460/587/2 461/588/2 462/589/2
f 460/587/2 462/589/2 463/590/2
f 460/587/1 462/589/1 461/588/1
f 460/587/1 463/590/1 462/589/1
o Window_Right
v 1.5 1.5 -0.9
v 1.5 1.5 -1.7
v 1.5 2.5 -1.7
v 1.5 2.5 -0.9
usemtl stained
f 464/587/1 465/588/1 466/589/1
f 464/587/1 466/589/1 467/590/1
f 464/587/2 466/589/2 465/588/2
f 464/587/2 467/590/2 466/589/2
o Skylight_Left
v -0.5 4.717 -0.8
vt 0.001 0.502
v 0 4.98 -0.8
vt 0.125 0.502
v 0 4.98 -1.8
vt 0.125 0.998
v -0.5 4.717 -1.8
vt 0.001 0.998
usemtl stained
f 468/591/24 469/592/24 470/593/24
f 468/591/24 470/593/24 471/594/24
f 468/591/25 470/593/25 469/592/25
f 468/591/25 471/594/25 470/593/25
o Skylight_Right
v 0.5 4.717 -0.8
vt 0.249 0.502
v 0.5 4.717 -1.8
vt 0.249 0.998
usemtl stained
f 469/592/28 472/595/28 473/596/28
f 469/592/28 473/596/28 470/593/28
f 469/592/27 473/596/27 472/595/27
f 469/592/27 470/593/27 473/596/27
