ISO-10303-21;
HEADER;
FILE_DESCRIPTION(('ViewDefinition [ReferenceView]'),'2;1');
FILE_NAME('Tempietto.ifc','2026-01-01T00:00:00',('ExPlora4D'),('ExPlora4D'),'ExPlora4D - scripts/build-tempietto-examples.mjs','ExPlora4D - scripts/build-tempietto-examples.mjs','');
FILE_SCHEMA(('IFC4'));
ENDSEC;
DATA;
#1=IFCPERSON($,$,'ExPlora4D - scripts/build-tempietto-examples.mjs',$,$,$,$,$);
#2=IFCORGANIZATION($,'ExPlora4D',$,$,$);
#3=IFCPERSONANDORGANIZATION(#1,#2,$);
#4=IFCAPPLICATION(#2,'1.0','ExPlora4D - scripts/build-tempietto-examples.mjs','ExPlora4D');
#5=IFCOWNERHISTORY(#3,#4,$,.ADDED.,$,$,$,0);
#6=IFCCARTESIANPOINT((0.,0.,0.));
#7=IFCAXIS2PLACEMENT3D(#6,$,$);
#8=IFCLOCALPLACEMENT($,#7);
#9=IFCGEOMETRICREPRESENTATIONCONTEXT($,'Model',3,1.E-05,#7,$);
#10=IFCGEOMETRICREPRESENTATIONSUBCONTEXT('Body','Model',*,*,*,*,#9,$,.MODEL_VIEW.,$);
#11=IFCSIUNIT(*,.LENGTHUNIT.,$,.METRE.);
#12=IFCSIUNIT(*,.AREAUNIT.,$,.SQUARE_METRE.);
#13=IFCSIUNIT(*,.VOLUMEUNIT.,$,.CUBIC_METRE.);
#14=IFCUNITASSIGNMENT((#11,#12,#13));
#15=IFCPROJECT('2E19BK3JES_vftJvMbftWB',#5,'Tempietto',$,$,$,$,(#9),#14);
#16=IFCSITE('0QaRD_1ilL47iIxEbiiP0q',#5,'Site',$,$,#8,$,$,.ELEMENT.,$,$,$,$,$);
#17=IFCBUILDING('3$Z3HQucalDCMOdnUOu7pI',#5,'Tempietto',$,$,#8,$,$,.ELEMENT.,$,$,$);
#18=IFCBUILDINGSTOREY('3p$EjOmXQH9JJoY8hKi2Di',#5,'Ground',$,$,#8,$,$,.ELEMENT.,0.);
#19=IFCRELAGGREGATES('0kiWYt4Yw$naRJPo_POHq1',#5,$,$,#15,(#16));
#20=IFCRELAGGREGATES('1THSxzbsXtskcHBHMR3xMy',#5,$,$,#16,(#17));
#21=IFCRELAGGREGATES('316cH2Kg9Rftra58v4veuJ',#5,$,$,#17,(#18));
#22=IFCCARTESIANPOINTLIST3D(((2.,-2.1,0.),(2.,3.,0.),(2.,3.,0.6),(2.,-2.1,0.6),(-2.,3.,0.),(-2.,-2.1,0.),(-2.,-2.1,0.6),(-2.,3.,0.6)),$);
#23=IFCTRIANGULATEDFACESET(#22,$,$,((1,2,3),(1,3,4),(5,6,7),(5,7,8),(6,1,4),(6,4,7),(2,5,8),(2,8,3),(7,4,3),(7,3,8),(5,2,1),(5,1,6)),$);
#24=IFCCOLOURRGB($,0.624,0.581,0.513);
#25=IFCSURFACESTYLESHADING(#24,0.);
#26=IFCSURFACESTYLE($,.BOTH.,(#25));
#27=IFCSTYLEDITEM(#23,(#26),$);
#28=IFCSHAPEREPRESENTATION(#10,'Body','Tessellation',(#23));
#29=IFCPRODUCTDEFINITIONSHAPE($,$,(#28));
#30=IFCSLAB('0hnRCO5B7$QsdCHCQSWWX6',#5,'Block',$,$,#8,#29,$,.BASESLAB.);
#31=IFCCARTESIANPOINTLIST3D(((1.2,-3.,0.),(1.2,-2.1,0.),(1.2,-2.1,0.2),(1.2,-3.,0.2),(-1.2,-2.1,0.),(-1.2,-3.,0.),(-1.2,-3.,0.2),(-1.2,-2.1,0.2)),$);
#32=IFCTRIANGULATEDFACESET(#31,$,$,((1,2,3),(1,3,4),(5,6,7),(5,7,8),(6,1,4),(6,4,7),(7,4,3),(7,3,8),(5,2,1),(5,1,6)),$);
#33=IFCCOLOURRGB($,0.575,0.485,0.434);
#34=IFCSURFACESTYLESHADING(#33,0.);
#35=IFCSURFACESTYLE($,.BOTH.,(#34));
#36=IFCSTYLEDITEM(#32,(#35),$);
#37=IFCSHAPEREPRESENTATION(#10,'Body','Tessellation',(#32));
#38=IFCPRODUCTDEFINITIONSHAPE($,$,(#37));
#39=IFCSLAB('0ji47_X$H4RW7rFa4d7ObL',#5,'Step_1',$,$,#8,#38,$,.BASESLAB.);
#40=IFCCARTESIANPOINTLIST3D(((1.2,-2.7,0.2),(1.2,-2.1,0.2),(1.2,-2.1,0.4),(1.2,-2.7,0.4),(-1.2,-2.1,0.2),(-1.2,-2.7,0.2),(-1.2,-2.7,0.4),(-1.2,-2.1,0.4)),$);
#41=IFCTRIANGULATEDFACESET(#40,$,$,((1,2,3),(1,3,4),(5,6,7),(5,7,8),(6,1,4),(6,4,7),(7,4,3),(7,3,8)),$);
#42=IFCCOLOURRGB($,0.615,0.471,0.424);
#43=IFCSURFACESTYLESHADING(#42,0.);
#44=IFCSURFACESTYLE($,.BOTH.,(#43));
#45=IFCSTYLEDITEM(#41,(#44),$);
#46=IFCSHAPEREPRESENTATION(#10,'Body','Tessellation',(#41));
#47=IFCPRODUCTDEFINITIONSHAPE($,$,(#46));
#48=IFCSLAB('2UZaNqOIr1V3Y63T8YU4Kz',#5,'Step_2',$,$,#8,#47,$,.BASESLAB.);
#49=IFCCARTESIANPOINTLIST3D(((1.2,-2.4,0.4),(1.2,-2.1,0.4),(1.2,-2.1,0.6),(1.2,-2.4,0.6),(-1.2,-2.1,0.4),(-1.2,-2.4,0.4),(-1.2,-2.4,0.6),(-1.2,-2.1,0.6)),$);
#50=IFCTRIANGULATEDFACESET(#49,$,$,((1,2,3),(1,3,4),(5,6,7),(5,7,8),(6,1,4),(6,4,7),(7,4,3),(7,3,8)),$);
#51=IFCCOLOURRGB($,0.716,0.57,0.515);
#52=IFCSURFACESTYLESHADING(#51,0.);
#53=IFCSURFACESTYLE($,.BOTH.,(#52));
#54=IFCSTYLEDITEM(#50,(#53),$);
#55=IFCSHAPEREPRESENTATION(#10,'Body','Tessellation',(#50));
#56=IFCPRODUCTDEFINITIONSHAPE($,$,(#55));
#57=IFCSLAB('0j5KZrUfJgCZiXRuSY3hBB',#5,'Step_3',$,$,#8,#56,$,.BASESLAB.);
#58=IFCCARTESIANPOINTLIST3D(((-1.6,-0.2,0.6),(-0.5,-0.2,0.6),(-0.5,-0.2,3.6),(-1.6,-0.2,3.6),(0.5,-0.2,0.6),(1.6,-0.2,0.6),(1.6,-0.2,3.6),(0.5,-0.2,3.6),(-0.5,-0.2,2.8),(0.5,-0.2,2.8),(1.6,0.,0.6),(0.5,0.,0.6),(0.5,0.,3.6),(1.6,0.,3.6),(-0.5,0.,0.6),(-1.6,0.,0.6),(-1.6,0.,3.6),(-0.5,0.,3.6),(0.5,0.,2.8),(-0.5,0.,2.8)),$);
#59=IFCTRIANGULATEDFACESET(#58,$,$,((1,2,3),(1,3,4),(5,6,7),(5,7,8),(9,10,8),(9,8,3),(11,12,13),(11,13,14),(15,16,17),(15,17,18),(19,20,18),(19,18,13),(2,15,20),(2,20,9),(12,5,10),(12,10,19),(20,19,10),(20,10,9),(16,1,4),(16,4,17),(6,11,14),(6,14,7)),$);
#60=IFCCOLOURRGB($,0.706,0.631,0.567);
#61=IFCSURFACESTYLESHADING(#60,0.);
#62=IFCSURFACESTYLE($,.BOTH.,(#61));
#63=IFCSTYLEDITEM(#59,(#62),$);
#64=IFCSHAPEREPRESENTATION(#10,'Body','Tessellation',(#59));
#65=IFCPRODUCTDEFINITIONSHAPE($,$,(#64));
#66=IFCWALL('2CltXoZPbJIqKajggqSFNI',#5,'Wall_Front',$,$,#8,#65,$,.SOLIDWALL.);
#67=IFCCARTESIANPOINTLIST3D(((1.6,2.8,0.6),(0.4,2.8,0.6),(0.4,2.8,3.6),(1.6,2.8,3.6),(-0.4,2.8,0.6),(-1.6,2.8,0.6),(-1.6,2.8,3.6),(-0.4,2.8,3.6),(-0.4,2.8,1.5),(0.4,2.8,1.5),(0.4,2.8,2.5),(-0.4,2.8,2.5),(-1.6,2.6,0.6),(-0.4,2.6,0.6),(-0.4,2.6,3.6),(-1.6,2.6,3.6),(0.4,2.6,0.6),(1.6,2.6,0.6),(1.6,2.6,3.6),(0.4,2.6,3.6),(0.4,2.6,1.5),(-0.4,2.6,1.5),(-0.4,2.6,2.5),(0.4,2.6,2.5)),$);
#68=IFCTRIANGULATEDFACESET(#67,$,$,((1,2,3),(1,3,4),(5,6,7),(5,7,8),(2,5,9),(2,9,10),(11,12,8),(11,8,3),(13,14,15),(13,15,16),(17,18,19),(17,19,20),(14,17,21),(14,21,22),(23,24,20),(23,20,15),(10,21,24),(10,24,11),(22,9,12),(22,12,23),(10,9,22),(10,22,21),(24,23,12),(24,12,11),(18,1,4),(18,4,19),(6,13,16),(6,16,7)),$);
#69=IFCCOLOURRGB($,0.71,0.619,0.553);
#70=IFCSURFACESTYLESHADING(#69,0.);
#71=IFCSURFACESTYLE($,.BOTH.,(#70));
#72=IFCSTYLEDITEM(#68,(#71),$);
#73=IFCSHAPEREPRESENTATION(#10,'Body','Tessellation',(#68));
#74=IFCPRODUCTDEFINITIONSHAPE($,$,(#73));
#75=IFCWALL('2YFboQnCDYbIZDfvMsUSiK',#5,'Wall_Back',$,$,#8,#74,$,.SOLIDWALL.);
#76=IFCCARTESIANPOINTLIST3D(((-1.6,2.6,0.6),(-1.6,1.7,0.6),(-1.6,1.7,3.6),(-1.6,2.6,3.6),(-1.6,0.9,0.6),(-1.6,0.,0.6),(-1.6,0.,3.6),(-1.6,0.9,3.6),(-1.6,0.9,1.5),(-1.6,1.7,1.5),(-1.6,1.7,2.5),(-1.6,0.9,2.5),(-1.4,0.,0.6),(-1.4,0.9,0.6),(-1.4,0.9,3.6),(-1.4,0.,3.6),(-1.4,1.7,0.6),(-1.4,2.6,0.6),(-1.4,2.6,3.6),(-1.4,1.7,3.6),(-1.4,1.7,1.5),(-1.4,0.9,1.5),(-1.4,0.9,2.5),(-1.4,1.7,2.5)),$);
#77=IFCTRIANGULATEDFACESET(#76,$,$,((1,2,3),(1,3,4),(5,6,7),(5,7,8),(2,5,9),(2,9,10),(11,12,8),(11,8,3),(13,14,15),(13,15,16),(17,18,19),(17,19,20),(14,17,21),(14,21,22),(23,24,20),(23,20,15),(10,21,24),(10,24,11),(22,9,12),(22,12,23),(10,9,22),(10,22,21),(24,23,12),(24,12,11)),$);
#78=IFCSTYLEDITEM(#77,(#71),$);
#79=IFCSHAPEREPRESENTATION(#10,'Body','Tessellation',(#77));
#80=IFCPRODUCTDEFINITIONSHAPE($,$,(#79));
#81=IFCWALL('1vemLKJAqYMlMWfeOAGMtZ',#5,'Wall_Left',$,$,#8,#80,$,.SOLIDWALL.);
#82=IFCCARTESIANPOINTLIST3D(((1.6,0.,0.6),(1.6,0.9,0.6),(1.6,0.9,3.6),(1.6,0.,3.6),(1.6,1.7,0.6),(1.6,2.6,0.6),(1.6,2.6,3.6),(1.6,1.7,3.6),(1.6,1.7,1.5),(1.6,0.9,1.5),(1.6,0.9,2.5),(1.6,1.7,2.5),(1.4,2.6,0.6),(1.4,1.7,0.6),(1.4,1.7,3.6),(1.4,2.6,3.6),(1.4,0.9,0.6),(1.4,0.,0.6),(1.4,0.,3.6),(1.4,0.9,3.6),(1.4,0.9,1.5),(1.4,1.7,1.5),(1.4,1.7,2.5),(1.4,0.9,2.5)),$);
#83=IFCTRIANGULATEDFACESET(#82,$,$,((1,2,3),(1,3,4),(5,6,7),(5,7,8),(2,5,9),(2,9,10),(11,12,8),(11,8,3),(13,14,15),(13,15,16),(17,18,19),(17,19,20),(14,17,21),(14,21,22),(23,24,20),(23,20,15),(10,21,24),(10,24,11),(22,9,12),(22,12,23),(10,9,22),(10,22,21),(24,23,12),(24,12,11)),$);
#84=IFCCOLOURRGB($,0.719,0.616,0.549);
#85=IFCSURFACESTYLESHADING(#84,0.);
#86=IFCSURFACESTYLE($,.BOTH.,(#85));
#87=IFCSTYLEDITEM(#83,(#86),$);
#88=IFCSHAPEREPRESENTATION(#10,'Body','Tessellation',(#83));
#89=IFCPRODUCTDEFINITIONSHAPE($,$,(#88));
#90=IFCWALL('0HPr9LeWcaOUd6M1Y79OaP',#5,'Wall_Right',$,$,#8,#89,$,.SOLIDWALL.);
#91=IFCCARTESIANPOINTLIST3D(((-1.22,-1.88,0.6),(-1.22,-1.32,0.6),(-1.22,-1.32,0.75),(-1.22,-1.88,0.75),(-1.78,-1.32,0.6),(-1.78,-1.88,0.6),(-1.78,-1.88,0.75),(-1.78,-1.32,0.75),(-1.28,-1.6,0.75),(-1.344,-1.444,0.75),(-1.373,-1.473,3.35),(-1.32,-1.6,3.35),(-1.5,-1.38,0.75),(-1.5,-1.42,3.35),(-1.656,-1.444,0.75),(-1.627,-1.473,3.35),(-1.72,-1.6,0.75),(-1.68,-1.6,3.35),(-1.656,-1.756,0.75),(-1.627,-1.727,3.35),(-1.5,-1.82,0.75),(-1.5,-1.78,3.35),(-1.344,-1.756,0.75),(-1.373,-1.727,3.35),(-1.22,-1.88,3.35),(-1.22,-1.32,3.35),(-1.22,-1.32,3.6),(-1.22,-1.88,3.6),(-1.78,-1.32,3.35),(-1.78,-1.88,3.35),(-1.78,-1.88,3.6),(-1.78,-1.32,3.6)),$);
#92=IFCTRIANGULATEDFACESET(#91,$,$,((1,2,3),(1,3,4),(5,6,7),(5,7,8),(6,1,4),(6,4,7),(2,5,8),(2,8,3),(7,4,3),(7,3,8),(9,10,11),(9,11,12),(10,13,14),(10,14,11),(13,15,16),(13,16,14),(15,17,18),(15,18,16),(17,19,20),(17,20,18),(19,21,22),(19,22,20),(21,23,24),(21,24,22),(23,9,12),(23,12,24),(25,26,27),(25,27,28),(29,30,31),(29,31,32),(30,25,28),(30,28,31),(26,29,32),(26,32,27),(29,26,25),(29,25,30)),$);
#93=IFCCOLOURRGB($,0.693,0.662,0.588);
#94=IFCSURFACESTYLESHADING(#93,0.);
#95=IFCSURFACESTYLE($,.BOTH.,(#94));
#96=IFCSTYLEDITEM(#92,(#95),$);
#97=IFCSHAPEREPRESENTATION(#10,'Body','Tessellation',(#92));
#98=IFCPRODUCTDEFINITIONSHAPE($,$,(#97));
#99=IFCCOLUMN('3je$fjzmG97n3Tv_WR285u',#5,'Column_1',$,$,#8,#98,$,.COLUMN.);
#100=IFCCARTESIANPOINTLIST3D(((-0.37,-1.88,0.6),(-0.37,-1.32,0.6),(-0.37,-1.32,0.75),(-0.37,-1.88,0.75),(-0.93,-1.32,0.6),(-0.93,-1.88,0.6),(-0.93,-1.88,0.75),(-0.93,-1.32,0.75),(-0.43,-1.6,0.75),(-0.494,-1.444,0.75),(-0.523,-1.473,3.35),(-0.47,-1.6,3.35),(-0.65,-1.38,0.75),(-0.65,-1.42,3.35),(-0.806,-1.444,0.75),(-0.777,-1.473,3.35),(-0.87,-1.6,0.75),(-0.83,-1.6,3.35),(-0.806,-1.756,0.75),(-0.777,-1.727,3.35),(-0.65,-1.82,0.75),(-0.65,-1.78,3.35),(-0.494,-1.756,0.75),(-0.523,-1.727,3.35),(-0.37,-1.88,3.35),(-0.37,-1.32,3.35),(-0.37,-1.32,3.6),(-0.37,-1.88,3.6),(-0.93,-1.32,3.35),(-0.93,-1.88,3.35),(-0.93,-1.88,3.6),(-0.93,-1.32,3.6)),$);
#101=IFCTRIANGULATEDFACESET(#100,$,$,((1,2,3),(1,3,4),(5,6,7),(5,7,8),(6,1,4),(6,4,7),(2,5,8),(2,8,3),(7,4,3),(7,3,8),(9,10,11),(9,11,12),(10,13,14),(10,14,11),(13,15,16),(13,16,14),(15,17,18),(15,18,16),(17,19,20),(17,20,18),(19,21,22),(19,22,20),(21,23,24),(21,24,22),(23,9,12),(23,12,24),(25,26,27),(25,27,28),(29,30,31),(29,31,32),(30,25,28),(30,28,31),(26,29,32),(26,32,27),(29,26,25),(29,25,30)),$);
#102=IFCSTYLEDITEM(#101,(#95),$);
#103=IFCSHAPEREPRESENTATION(#10,'Body','Tessellation',(#101));
#104=IFCPRODUCTDEFINITIONSHAPE($,$,(#103));
#105=IFCCOLUMN('1ZxJozhiHcKQpLtTF09h73',#5,'Column_2',$,$,#8,#104,$,.COLUMN.);
#106=IFCCARTESIANPOINTLIST3D(((0.93,-1.88,0.6),(0.93,-1.32,0.6),(0.93,-1.32,0.75),(0.93,-1.88,0.75),(0.37,-1.32,0.6),(0.37,-1.88,0.6),(0.37,-1.88,0.75),(0.37,-1.32,0.75),(0.87,-1.6,0.75),(0.806,-1.444,0.75),(0.777,-1.473,3.35),(0.83,-1.6,3.35),(0.65,-1.38,0.75),(0.65,-1.42,3.35),(0.494,-1.444,0.75),(0.523,-1.473,3.35),(0.43,-1.6,0.75),(0.47,-1.6,3.35),(0.494,-1.756,0.75),(0.523,-1.727,3.35),(0.65,-1.82,0.75),(0.65,-1.78,3.35),(0.806,-1.756,0.75),(0.777,-1.727,3.35),(0.93,-1.88,3.35),(0.93,-1.32,3.35),(0.93,-1.32,3.6),(0.93,-1.88,3.6),(0.37,-1.32,3.35),(0.37,-1.88,3.35),(0.37,-1.88,3.6),(0.37,-1.32,3.6)),$);
#107=IFCTRIANGULATEDFACESET(#106,$,$,((1,2,3),(1,3,4),(5,6,7),(5,7,8),(6,1,4),(6,4,7),(2,5,8),(2,8,3),(7,4,3),(7,3,8),(9,10,11),(9,11,12),(10,13,14),(10,14,11),(13,15,16),(13,16,14),(15,17,18),(15,18,16),(17,19,20),(17,20,18),(19,21,22),(19,22,20),(21,23,24),(21,24,22),(23,9,12),(23,12,24),(25,26,27),(25,27,28),(29,30,31),(29,31,32),(30,25,28),(30,28,31),(26,29,32),(26,32,27),(29,26,25),(29,25,30)),$);
#108=IFCSTYLEDITEM(#107,(#95),$);
#109=IFCSHAPEREPRESENTATION(#10,'Body','Tessellation',(#107));
#110=IFCPRODUCTDEFINITIONSHAPE($,$,(#109));
#111=IFCCOLUMN('3a4f3ZvJxX0rm2MoGsNaqe',#5,'Column_3',$,$,#8,#110,$,.COLUMN.);
#112=IFCCARTESIANPOINTLIST3D(((1.78,-1.88,0.6),(1.78,-1.32,0.6),(1.78,-1.32,0.75),(1.78,-1.88,0.75),(1.22,-1.32,0.6),(1.22,-1.88,0.6),(1.22,-1.88,0.75),(1.22,-1.32,0.75),(1.72,-1.6,0.75),(1.656,-1.444,0.75),(1.644,-1.456,1.85),(1.703,-1.6,1.85),(1.5,-1.38,0.75),(1.5,-1.397,1.85),(1.344,-1.444,0.75),(1.356,-1.456,1.85),(1.28,-1.6,0.75),(1.297,-1.6,1.85),(1.344,-1.756,0.75),(1.356,-1.744,1.85),(1.5,-1.82,0.75),(1.5,-1.803,1.85),(1.656,-1.756,0.75),(1.644,-1.744,1.85),(1.5,-1.6,1.85)),$);
#113=IFCTRIANGULATEDFACESET(#112,$,$,((1,2,3),(1,3,4),(5,6,7),(5,7,8),(6,1,4),(6,4,7),(2,5,8),(2,8,3),(7,4,3),(7,3,8),(9,10,11),(9,11,12),(10,13,14),(10,14,11),(13,15,16),(13,16,14),(15,17,18),(15,18,16),(17,19,20),(17,20,18),(19,21,22),(19,22,20),(21,23,24),(21,24,22),(23,9,12),(23,12,24),(25,12,11),(25,11,14),(25,14,16),(25,16,18),(25,18,20),(25,20,22),(25,22,24),(25,24,12)),$);
#114=IFCCOLOURRGB($,0.679,0.647,0.575);
#115=IFCSURFACESTYLESHADING(#114,0.);
#116=IFCSURFACESTYLE($,.BOTH.,(#115));
#117=IFCSTYLEDITEM(#113,(#116),$);
#118=IFCSHAPEREPRESENTATION(#10,'Body','Tessellation',(#113));
#119=IFCPRODUCTDEFINITIONSHAPE($,$,(#118));
#120=IFCCOLUMN('1aoNxKIB3WORPvUJgtqM_a',#5,'Column_4_Stump',$,$,#8,#119,$,.COLUMN.);
#121=IFCCARTESIANPOINTLIST3D(((1.703,-1.6,1.85),(1.644,-1.456,1.85),(1.627,-1.473,3.35),(1.68,-1.6,3.35),(1.5,-1.397,1.85),(1.5,-1.42,3.35),(1.356,-1.456,1.85),(1.373,-1.473,3.35),(1.297,-1.6,1.85),(1.32,-1.6,3.35),(1.356,-1.744,1.85),(1.373,-1.727,3.35),(1.5,-1.803,1.85),(1.5,-1.78,3.35),(1.644,-1.744,1.85),(1.627,-1.727,3.35),(1.78,-1.88,3.35),(1.78,-1.32,3.35),(1.78,-1.32,3.6),(1.78,-1.88,3.6),(1.22,-1.32,3.35),(1.22,-1.88,3.35),(1.22,-1.88,3.6),(1.22,-1.32,3.6)),$);
#122=IFCTRIANGULATEDFACESET(#121,$,$,((1,2,3),(1,3,4),(2,5,6),(2,6,3),(5,7,8),(5,8,6),(7,9,10),(7,10,8),(9,11,12),(9,12,10),(11,13,14),(11,14,12),(13,15,16),(13,16,14),(15,1,4),(15,4,16),(17,18,19),(17,19,20),(21,22,23),(21,23,24),(22,17,20),(22,20,23),(18,21,24),(18,24,19),(21,18,17),(21,17,22)),$);
#123=IFCCOLOURRGB($,0.868,0.853,0.828);
#124=IFCSURFACESTYLESHADING(#123,0.);
#125=IFCSURFACESTYLE($,.BOTH.,(#124));
#126=IFCSTYLEDITEM(#122,(#125),$);
#127=IFCSHAPEREPRESENTATION(#10,'Body','Tessellation',(#122));
#128=IFCPRODUCTDEFINITIONSHAPE($,$,(#127));
#129=IFCCOLUMN('3WleZGqEML2VHDyAX1ZxgM',#5,'Column_4_Reconstructed',$,$,#8,#128,$,.COLUMN.);
#130=IFCCARTESIANPOINTLIST3D(((1.691,-2.212,0.4),(1.554,-2.175,0.341),(1.373,-2.851,0.341),(1.509,-2.888,0.4),(1.497,-2.16,0.2),(1.316,-2.836,0.2),(1.554,-2.175,0.059),(1.373,-2.851,0.059),(1.691,-2.212,0.),(1.509,-2.888,0.),(1.827,-2.249,0.059),(1.646,-2.925,0.059),(1.884,-2.264,0.2),(1.703,-2.94,0.2),(1.827,-2.249,0.341),(1.646,-2.925,0.341),(1.509,-2.888,0.2),(1.691,-2.212,0.2)),$);
#131=IFCTRIANGULATEDFACESET(#130,$,$,((1,2,3),(1,3,4),(2,5,6),(2,6,3),(5,7,8),(5,8,6),(7,9,10),(7,10,8),(9,11,12),(9,12,10),(11,13,14),(11,14,12),(13,15,16),(13,16,14),(15,1,4),(15,4,16),(17,4,3),(17,3,6),(17,6,8),(17,8,10),(17,10,12),(17,12,14),(17,14,16),(17,16,4),(18,2,1),(18,5,2),(18,7,5),(18,9,7),(18,11,9),(18,13,11),(18,15,13),(18,1,15)),$);
#132=IFCCOLOURRGB($,0.599,0.571,0.505);
#133=IFCSURFACESTYLESHADING(#132,0.);
#134=IFCSURFACESTYLE($,.BOTH.,(#133));
#135=IFCSTYLEDITEM(#131,(#134),$);
#136=IFCSHAPEREPRESENTATION(#10,'Body','Tessellation',(#131));
#137=IFCPRODUCTDEFINITIONSHAPE($,$,(#136));
#138=IFCBUILDINGELEMENTPROXY('31bn_o5iewNCAs$AcpXE$x',#5,'Fallen_Drum',$,$,#8,#137,$,.ELEMENT.);
#139=IFCCARTESIANPOINTLIST3D(((-1.8,-1.95,4.),(-0.5,-1.95,4.),(-0.5,2.9,4.),(-1.8,2.9,4.),(0.5,-1.95,4.),(1.8,-1.95,4.),(1.8,2.9,4.),(0.5,2.9,4.),(0.5,0.8,4.),(-0.5,0.8,4.),(-0.5,1.8,4.),(0.5,1.8,4.),(1.8,-1.95,3.6),(0.5,-1.95,3.6),(0.5,2.9,3.6),(1.8,2.9,3.6),(-0.5,-1.95,3.6),(-1.8,-1.95,3.6),(-1.8,2.9,3.6),(-0.5,2.9,3.6),(-0.5,0.8,3.6),(0.5,0.8,3.6),(0.5,1.8,3.6),(-0.5,1.8,3.6)),$);
#140=IFCTRIANGULATEDFACESET(#139,$,$,((1,2,3),(1,3,4),(5,6,7),(5,7,8),(2,5,9),(2,9,10),(11,12,8),(11,8,3),(13,14,15),(13,15,16),(17,18,19),(17,19,20),(14,17,21),(14,21,22),(23,24,20),(23,20,15),(10,21,24),(10,24,11),(22,9,12),(22,12,23),(10,9,22),(10,22,21),(24,23,12),(24,12,11),(19,18,1),(19,1,4),(13,16,7),(13,7,6),(18,13,6),(18,6,1),(16,19,4),(16,4,7)),$);
#141=IFCCOLOURRGB($,0.567,0.557,0.539);
#142=IFCSURFACESTYLESHADING(#141,0.);
#143=IFCSURFACESTYLE($,.BOTH.,(#142));
#144=IFCSTYLEDITEM(#140,(#143),$);
#145=IFCSHAPEREPRESENTATION(#10,'Body','Tessellation',(#140));
#146=IFCPRODUCTDEFINITIONSHAPE($,$,(#145));
#147=IFCBEAM('0sgWF3Z5nMvP_nDhBNRXAZ',#5,'Entablature',$,$,#8,#146,$,.BEAM.);
#148=IFCCARTESIANPOINTLIST3D(((-1.863,3.,3.929),(-1.863,-2.05,3.929),(-1.9,-2.05,4.),(-1.9,3.,4.),(-0.463,-2.05,4.666),(-0.5,-2.05,4.737),(-0.463,3.,4.666),(-0.5,3.,4.737),(0.037,3.,4.929),(0.,3.,5.),(-0.5,1.8,4.737),(0.,1.8,5.),(0.037,1.8,4.929),(-0.463,1.8,4.666),(0.037,-2.05,4.929),(0.,-2.05,5.),(0.,0.8,5.),(-0.5,0.8,4.737),(-0.463,0.8,4.666),(0.037,0.8,4.929)),$);
#149=IFCTRIANGULATEDFACESET(#148,$,$,((1,2,3),(1,3,4),(2,5,6),(2,6,3),(7,1,4),(7,4,8),(3,6,8),(3,8,4),(1,7,5),(1,5,2),(9,7,8),(9,8,10),(11,12,10),(11,10,8),(7,9,13),(7,13,14),(5,15,16),(5,16,6),(6,16,17),(6,17,18),(19,20,15),(19,15,5)),$);
#150=IFCCOLOURRGB($,0.381,0.229,0.15);
#151=IFCSURFACESTYLESHADING(#150,0.);
#152=IFCSURFACESTYLE($,.BOTH.,(#151));
#153=IFCSTYLEDITEM(#149,(#152),$);
#154=IFCSHAPEREPRESENTATION(#10,'Body','Tessellation',(#149));
#155=IFCPRODUCTDEFINITIONSHAPE($,$,(#154));
#156=IFCSLAB('2jX$DkB5rum0wn906NZGUe',#5,'Slope_Left',$,$,#8,#155,$,.ROOF.);
#157=IFCCARTESIANPOINTLIST3D(((1.9,3.,4.),(1.9,-2.05,4.),(1.863,-2.05,3.929),(1.863,3.,3.929),(0.5,-2.05,4.737),(0.463,-2.05,4.666),(0.5,3.,4.737),(0.463,3.,4.666),(0.,3.,5.),(-0.037,3.,4.929),(0.463,1.8,4.666),(-0.037,1.8,4.929),(0.,1.8,5.),(0.5,1.8,4.737),(0.,-2.05,5.),(-0.037,-2.05,4.929),(-0.037,0.8,4.929),(0.463,0.8,4.666),(0.5,0.8,4.737),(0.,0.8,5.)),$);
#158=IFCTRIANGULATEDFACESET(#157,$,$,((1,2,3),(1,3,4),(2,5,6),(2,6,3),(7,1,4),(7,4,8),(3,6,8),(3,8,4),(1,7,5),(1,5,2),(9,7,8),(9,8,10),(11,12,10),(11,10,8),(7,9,13),(7,13,14),(5,15,16),(5,16,6),(6,16,17),(6,17,18),(19,20,15),(19,15,5)),$);
#159=IFCCOLOURRGB($,0.42,0.242,0.156);
#160=IFCSURFACESTYLESHADING(#159,0.);
#161=IFCSURFACESTYLE($,.BOTH.,(#160));
#162=IFCSTYLEDITEM(#158,(#161),$);
#163=IFCSHAPEREPRESENTATION(#10,'Body','Tessellation',(#158));
#164=IFCPRODUCTDEFINITIONSHAPE($,$,(#163));
#165=IFCSLAB('2XMOFvSBpZgo_WeX0Vm6lL',#5,'Slope_Right',$,$,#8,#164,$,.ROOF.);
#166=IFCCARTESIANPOINTLIST3D(((-0.5,0.8,4.),(-0.5,1.8,4.),(-0.5,1.8,4.737),(-0.5,0.8,4.737),(0.5,1.8,4.),(0.5,0.8,4.),(0.5,0.8,4.737),(0.5,1.8,4.737),(0.,1.8,5.),(0.,0.8,5.)),$);
#167=IFCTRIANGULATEDFACESET(#166,$,$,((1,2,3),(1,3,4),(5,6,7),(5,7,8),(2,5,8),(2,8,9),(2,9,3),(6,1,4),(6,4,10),(6,10,7)),$);
#168=IFCCOLOURRGB($,0.765,0.739,0.669);
#169=IFCSURFACESTYLESHADING(#168,0.);
#170=IFCSURFACESTYLE($,.BOTH.,(#169));
#171=IFCSTYLEDITEM(#167,(#170),$);
#172=IFCSHAPEREPRESENTATION(#10,'Body','Tessellation',(#167));
#173=IFCPRODUCTDEFINITIONSHAPE($,$,(#172));
#174=IFCBUILDINGELEMENTPROXY('23SbKDt0YC1Sn$IHDeI2YZ',#5,'Skylight_Well',$,$,#8,#173,$,.ELEMENT.);
#175=IFCCARTESIANPOINTLIST3D(((-1.9,-1.95,4.),(1.9,-1.95,4.),(0.,-1.95,5.)),$);
#176=IFCTRIANGULATEDFACESET(#175,$,$,((1,2,3),(2,1,3)),$);
#177=IFCCOLOURRGB($,0.556,0.536,0.512);
#178=IFCSURFACESTYLESHADING(#177,0.);
#179=IFCSURFACESTYLE($,.BOTH.,(#178));
#180=IFCSTYLEDITEM(#176,(#179),$);
#181=IFCSHAPEREPRESENTATION(#10,'Body','Tessellation',(#176));
#182=IFCPRODUCTDEFINITIONSHAPE($,$,(#181));
#183=IFCWALL('3Z0RDlmqvtohQpsN_ux7G9',#5,'Pediment_Front',$,$,#8,#182,$,.SOLIDWALL.);
#184=IFCCARTESIANPOINTLIST3D(((1.9,2.9,4.),(-1.9,2.9,4.),(0.,2.9,5.)),$);
#185=IFCTRIANGULATEDFACESET(#184,$,$,((1,2,3),(2,1,3)),$);
#186=IFCSTYLEDITEM(#185,(#179),$);
#187=IFCSHAPEREPRESENTATION(#10,'Body','Tessellation',(#185));
#188=IFCPRODUCTDEFINITIONSHAPE($,$,(#187));
#189=IFCWALL('0qHbv9pzxcwSBj5EaWL7AQ',#5,'Pediment_Back',$,$,#8,#188,$,.SOLIDWALL.);
#190=IFCCARTESIANPOINTLIST3D(((0.3,1.,0.6),(0.3,1.6,0.6),(0.3,1.6,1.3),(0.3,1.,1.3),(-0.3,1.6,0.6),(-0.3,1.,0.6),(-0.3,1.,1.3),(-0.3,1.6,1.3)),$);
#191=IFCTRIANGULATEDFACESET(#190,$,$,((1,2,3),(1,3,4),(5,6,7),(5,7,8),(6,1,4),(6,4,7),(2,5,8),(2,8,3),(7,4,3),(7,3,8)),$);
#192=IFCCOLOURRGB($,0.754,0.715,0.638);
#193=IFCSURFACESTYLESHADING(#192,0.);
#194=IFCSURFACESTYLE($,.BOTH.,(#193));
#195=IFCSTYLEDITEM(#191,(#194),$);
#196=IFCSHAPEREPRESENTATION(#10,'Body','Tessellation',(#191));
#197=IFCPRODUCTDEFINITIONSHAPE($,$,(#196));
#198=IFCBUILDINGELEMENTPROXY('02pHs7ADTo66QvCSC5UY7u',#5,'Pedestal',$,$,#8,#197,$,.ELEMENT.);
#199=IFCCARTESIANPOINTLIST3D(((0.,1.3,2.2),(0.172,1.3,2.166),(0.159,1.234,2.166),(0.122,1.178,2.166),(0.066,1.141,2.166),(0.,1.128,2.166),(-0.066,1.141,2.166),(-0.122,1.178,2.166),(-0.159,1.234,2.166),(-0.172,1.3,2.166),(-0.159,1.366,2.166),(-0.122,1.422,2.166),(-0.066,1.459,2.166),(0.,1.472,2.166),(0.066,1.459,2.166),(0.122,1.422,2.166),(0.159,1.366,2.166),(0.318,1.3,2.068),(0.294,1.178,2.068),(0.225,1.075,2.068),(0.122,1.006,2.068),(0.,0.982,2.068),(-0.122,1.006,2.068),(-0.225,1.075,2.068),(-0.294,1.178,2.068),(-0.318,1.3,2.068),(-0.294,1.422,2.068),(-0.225,1.525,2.068),(-0.122,1.594,2.068),(0.,1.618,2.068),(0.122,1.594,2.068),(0.225,1.525,2.068),(0.294,1.422,2.068),(0.416,1.3,1.922),(0.384,1.141,1.922),(0.294,1.006,1.922),(0.159,0.916,1.922),(0.,0.884,1.922),(-0.159,0.916,1.922),(-0.294,1.006,1.922),(-0.384,1.141,1.922),(-0.416,1.3,1.922),(-0.384,1.459,1.922),(-0.294,1.594,1.922),(-0.159,1.684,1.922),(0.,1.716,1.922),(0.159,1.684,1.922),(0.294,1.594,1.922),(0.384,1.459,1.922),(0.45,1.3,1.75),(0.416,1.128,1.75),(0.318,0.982,1.75),(0.172,0.884,1.75),(0.,0.85,1.75),(-0.172,0.884,1.75),(-0.318,0.982,1.75),(-0.416,1.128,1.75),(-0.45,1.3,1.75),(-0.416,1.472,1.75),(-0.318,1.618,1.75),(-0.172,1.716,1.75),(0.,1.75,1.75),(0.172,1.716,1.75),(0.318,1.618,1.75),(0.416,1.472,1.75),(0.416,1.3,1.578),(0.384,1.141,1.578),(0.294,1.006,1.578),(0.159,0.916,1.578),(0.,0.884,1.578),(-0.159,0.916,1.578),(-0.294,1.006,1.578),(-0.384,1.141,1.578),(-0.416,1.3,1.578),(-0.384,1.459,1.578),(-0.294,1.594,1.578),(-0.159,1.684,1.578),(0.,1.716,1.578),(0.159,1.684,1.578),(0.294,1.594,1.578),(0.384,1.459,1.578),(0.318,1.3,1.432),(0.294,1.178,1.432),(0.225,1.075,1.432),(0.122,1.006,1.432),(0.,0.982,1.432),(-0.122,1.006,1.432),(-0.225,1.075,1.432),(-0.294,1.178,1.432),(-0.318,1.3,1.432),(-0.294,1.422,1.432),(-0.225,1.525,1.432),(-0.122,1.594,1.432),(0.,1.618,1.432),(0.122,1.594,1.432),(0.225,1.525,1.432),(0.294,1.422,1.432),(0.172,1.3,1.334),(0.159,1.234,1.334),(0.122,1.178,1.334),(0.066,1.141,1.334),(0.,1.128,1.334),(-0.066,1.141,1.334),(-0.122,1.178,1.334),(-0.159,1.234,1.334),(-0.172,1.3,1.334),(-0.159,1.366,1.334),(-0.122,1.422,1.334),(-0.066,1.459,1.334),(0.,1.472,1.334),(0.066,1.459,1.334),(0.122,1.422,1.334),(0.159,1.366,1.334),(0.,1.3,1.3)),$);
#200=IFCTRIANGULATEDFACESET(#199,$,$,((1,3,2),(114,98,99),(2,3,19),(2,19,18),(18,19,35),(18,35,34),(34,35,51),(34,51,50),(50,51,67),(50,67,66),(66,67,83),(66,83,82),(82,83,99),(82,99,98),(1,4,3),(114,99,100),(3,4,20),(3,20,19),(19,20,36),(19,36,35),(35,36,52),(35,52,51),(51,52,68),(51,68,67),(67,68,84),(67,84,83),(83,84,100),(83,100,99),(1,5,4),(114,100,101),(4,5,21),(4,21,20),(20,21,37),(20,37,36),(36,37,53),(36,53,52),(52,53,69),(52,69,68),(68,69,85),(68,85,84),(84,85,101),(84,101,100),(1,6,5),(114,101,102),(5,6,22),(5,22,21),(21,22,38),(21,38,37),(37,38,54),(37,54,53),(53,54,70),(53,70,69),(69,70,86),(69,86,85),(85,86,102),(85,102,101),(1,7,6),(114,102,103),(6,7,23),(6,23,22),(22,23,39),(22,39,38),(38,39,55),(38,55,54),(54,55,71),(54,71,70),(70,71,87),(70,87,86),(86,87,103),(86,103,102),(1,8,7),(114,103,104),(7,8,24),(7,24,23),(23,24,40),(23,40,39),(39,40,56),(39,56,55),(55,56,72),(55,72,71),(71,72,88),(71,88,87),(87,88,104),(87,104,103),(1,9,8),(114,104,105),(8,9,25),(8,25,24),(24,25,41),(24,41,40),(40,41,57),(40,57,56),(56,57,73),(56,73,72),(72,73,89),(72,89,88),(88,89,105),(88,105,104),(1,10,9),(114,105,106),(9,10,26),(9,26,25),(25,26,42),(25,42,41),(41,42,58),(41,58,57),(57,58,74),(57,74,73),(73,74,90),(73,90,89),(89,90,106),(89,106,105),(1,11,10),(114,106,107),(10,11,27),(10,27,26),(26,27,43),(26,43,42),(42,43,59),(42,59,58),(58,59,75),(58,75,74),(74,75,91),(74,91,90),(90,91,107),(90,107,106),(1,12,11),(114,107,108),(11,12,28),(11,28,27),(27,28,44),(27,44,43),(43,44,60),(43,60,59),(59,60,76),(59,76,75),(75,76,92),(75,92,91),(91,92,108),(91,108,107),(1,13,12),(114,108,109),(12,13,29),(12,29,28),(28,29,45),(28,45,44),(44,45,61),(44,61,60),(60,61,77),(60,77,76),(76,77,93),(76,93,92),(92,93,109),(92,109,108),(1,14,13),(114,109,110),(13,14,30),(13,30,29),(29,30,46),(29,46,45),(45,46,62),(45,62,61),(61,62,78),(61,78,77),(77,78,94),(77,94,93),(93,94,110),(93,110,109),(1,15,14),(114,110,111),(14,15,31),(14,31,30),(30,31,47),(30,47,46),(46,47,63),(46,63,62),(62,63,79),(62,79,78),(78,79,95),(78,95,94),(94,95,111),(94,111,110),(1,16,15),(114,111,112),(15,16,32),(15,32,31),(31,32,48),(31,48,47),(47,48,64),(47,64,63),(63,64,80),(63,80,79),(79,80,96),(79,96,95),(95,96,112),(95,112,111),(1,17,16),(114,112,113),(16,17,33),(16,33,32),(32,33,49),(32,49,48),(48,49,65),(48,65,64),(64,65,81),(64,81,80),(80,81,97),(80,97,96),(96,97,113),(96,113,112),(1,2,17),(114,113,98),(17,2,18),(17,18,33),(33,18,34),(33,34,49),(49,34,50),(49,50,65),(65,50,66),(65,66,81),(81,66,82),(81,82,97),(97,82,98),(97,98,113)),$);
#201=IFCCOLOURRGB($,0.839,0.91,0.941);
#202=IFCSURFACESTYLESHADING(#201,0.749);
#203=IFCSURFACESTYLE($,.BOTH.,(#202));
#204=IFCSTYLEDITEM(#200,(#203),$);
#205=IFCSHAPEREPRESENTATION(#10,'Body','Tessellation',(#200));
#206=IFCPRODUCTDEFINITIONSHAPE($,$,(#205));
#207=IFCBUILDINGELEMENTPROXY('0aWxL48GSPnikS$dDsrrKl',#5,'Glass_Sphere',$,$,#8,#206,$,.ELEMENT.);
#208=IFCCARTESIANPOINTLIST3D(((-0.4,2.7,1.5),(0.4,2.7,1.5),(0.4,2.7,2.5),(-0.4,2.7,2.5)),$);
#209=IFCTRIANGULATEDFACESET(#208,$,$,((1,2,3),(1,3,4),(1,3,2),(1,4,3)),$);
#210=IFCCOLOURRGB($,0.458,0.288,0.27);
#211=IFCSURFACESTYLESHADING(#210,0.4);
#212=IFCSURFACESTYLE($,.BOTH.,(#211));
#213=IFCSTYLEDITEM(#209,(#212),$);
#214=IFCSHAPEREPRESENTATION(#10,'Body','Tessellation',(#209));
#215=IFCPRODUCTDEFINITIONSHAPE($,$,(#214));
#216=IFCWINDOW('06Q6Vh1V_LuzL7$_cSazJB',#5,'Window_Back_Abstract',$,$,#8,#215,$,$,$,.WINDOW.,$,$);
#217=IFCCARTESIANPOINTLIST3D(((-1.5,1.7,1.5),(-1.5,0.9,1.5),(-1.5,0.9,2.5),(-1.5,1.7,2.5)),$);
#218=IFCTRIANGULATEDFACESET(#217,$,$,((1,2,3),(1,3,4),(1,3,2),(1,4,3)),$);
#219=IFCCOLOURRGB($,0.379,0.324,0.367);
#220=IFCSURFACESTYLESHADING(#219,0.4);
#221=IFCSURFACESTYLE($,.BOTH.,(#220));
#222=IFCSTYLEDITEM(#218,(#221),$);
#223=IFCSHAPEREPRESENTATION(#10,'Body','Tessellation',(#218));
#224=IFCPRODUCTDEFINITIONSHAPE($,$,(#223));
#225=IFCWINDOW('24v5ibLdTfjP1L3zzQ0DwW',#5,'Window_Left',$,$,#8,#224,$,$,$,.WINDOW.,$,$);
#226=IFCCARTESIANPOINTLIST3D(((1.5,0.9,1.5),(1.5,1.7,1.5),(1.5,1.7,2.5),(1.5,0.9,2.5)),$);
#227=IFCTRIANGULATEDFACESET(#226,$,$,((1,2,3),(1,3,4),(1,3,2),(1,4,3)),$);
#228=IFCSTYLEDITEM(#227,(#221),$);
#229=IFCSHAPEREPRESENTATION(#10,'Body','Tessellation',(#227));
#230=IFCPRODUCTDEFINITIONSHAPE($,$,(#229));
#231=IFCWINDOW('1TTb9AIA038gPCyWxGEcev',#5,'Window_Right',$,$,#8,#230,$,$,$,.WINDOW.,$,$);
#232=IFCCARTESIANPOINTLIST3D(((-0.5,0.8,4.717),(0.,0.8,4.98),(0.,1.8,4.98),(-0.5,1.8,4.717)),$);
#233=IFCTRIANGULATEDFACESET(#232,$,$,((1,2,3),(1,3,4),(1,3,2),(1,4,3)),$);
#234=IFCCOLOURRGB($,0.36,0.254,0.253);
#235=IFCSURFACESTYLESHADING(#234,0.4);
#236=IFCSURFACESTYLE($,.BOTH.,(#235));
#237=IFCSTYLEDITEM(#233,(#236),$);
#238=IFCSHAPEREPRESENTATION(#10,'Body','Tessellation',(#233));
#239=IFCPRODUCTDEFINITIONSHAPE($,$,(#238));
#240=IFCWINDOW('0pr$bG8EU7YeZoU4yVo6Y0',#5,'Skylight_Left',$,$,#8,#239,$,$,$,.SKYLIGHT.,$,$);
#241=IFCCARTESIANPOINTLIST3D(((0.,0.8,4.98),(0.5,0.8,4.717),(0.5,1.8,4.717),(0.,1.8,4.98)),$);
#242=IFCTRIANGULATEDFACESET(#241,$,$,((1,2,3),(1,3,4),(1,3,2),(1,4,3)),$);
#243=IFCCOLOURRGB($,0.314,0.247,0.267);
#244=IFCSURFACESTYLESHADING(#243,0.4);
#245=IFCSURFACESTYLE($,.BOTH.,(#244));
#246=IFCSTYLEDITEM(#242,(#245),$);
#247=IFCSHAPEREPRESENTATION(#10,'Body','Tessellation',(#242));
#248=IFCPRODUCTDEFINITIONSHAPE($,$,(#247));
#249=IFCWINDOW('1VoJnaG2xnbFMCs_I1LhXL',#5,'Skylight_Right',$,$,#8,#248,$,$,$,.SKYLIGHT.,$,$);
#250=IFCRELCONTAINEDINSPATIALSTRUCTURE('36$qpF90jhfrYfDn68kEyI',#5,$,$,(#30,#39,#48,#57,#66,#75,#81,#90,#99,#105,#111,#120,#129,#138,#147,#156,#165,#174,#183,#189,#198,#207,#216,#225,#231,#240,#249),#18);
ENDSEC;
END-ISO-10303-21;
